<?xml version="1.0" encoding="UTF-8"?>
<svg version="1.1" xmlns="http://www.w3.org/2000/svg" width="192" height="192">
<path d="M0 0 C63.36 0 126.72 0 192 0 C192 63.36 192 126.72 192 192 C128.64 192 65.28 192 0 192 C0 128.64 0 65.28 0 0 Z " fill="#121728" transform="translate(0,0)"/>
<path d="M0 0 C1.57007812 0.40025391 1.57007812 0.40025391 3.171875 0.80859375 C11.12728771 3.12720497 17.37132996 7.10290091 24 12 C24.85464844 12.60714844 25.70929688 13.21429687 26.58984375 13.83984375 C45.03197693 27.62045827 54.17884147 47.14721371 60.0390625 68.84765625 C60.87054741 72.11780074 60.87054741 72.11780074 63 75 C63.125 77.6875 63.125 77.6875 63 80 C64.65 80.33 66.3 80.66 68 81 C67.01 81.495 67.01 81.495 66 82 C66 83.65 66 85.3 66 87 C66.99 86.34 67.98 85.68 69 85 C69 116.35 69 147.7 69 180 C5.64 180 -57.72 180 -123 180 C-123 151.29 -123 122.58 -123 93 C-122.67 93 -122.34 93 -122 93 C-121.86722656 93.99902344 -121.73445313 94.99804688 -121.59765625 96.02734375 C-121.42105469 97.31769531 -121.24445313 98.60804687 -121.0625 99.9375 C-120.88847656 101.22527344 -120.71445313 102.51304688 -120.53515625 103.83984375 C-120.33837577 106.85466313 -120.33837577 106.85466313 -119 108 C-117.68 106.02 -116.36 104.04 -115 102 C-114.67 102.66 -114.34 103.32 -114 104 C-114.33 104.99 -114.66 105.98 -115 107 C-115.79344645 116.58239175 -113.81274007 123.48515189 -107.859375 131.07421875 C-100.09888677 139.11186727 -90.59732847 140.98308425 -79.859375 141.37109375 C-77.15446872 141.41243329 -74.45471879 141.43907533 -71.75 141.4375 C-70.68753555 141.43810425 -70.68753555 141.43810425 -69.60360718 141.4387207 C-57.17311195 141.39811361 -45.81545204 139.97869676 -34 136 C-33.16033691 135.72124023 -32.32067383 135.44248047 -31.45556641 135.15527344 C-11.23716658 128.27743767 8.33854385 119.02560155 26 107 C26.82725586 106.43812988 27.65451172 105.87625977 28.50683594 105.29736328 C36.96878996 99.52054155 45.32238357 93.80164677 53 87 C53.82918454 98.6085835 50.34757977 110.73944942 45 121 C44.60425781 121.83402344 44.20851562 122.66804688 43.80078125 123.52734375 C35.04413154 141.01555249 19.46016073 155.3867204 0.84082031 161.73632812 C-18.08138653 167.34352785 -36.44807466 166.2647255 -54.44140625 157.98828125 C-57.16474929 156.75979014 -57.16474929 156.75979014 -61 157 C-41.97805895 166.94548187 -21.62734723 170.97916401 -0.59375 164.39453125 C9.79621226 160.36277416 19.700073 155.55713197 28 148 C28.74507812 147.33484375 29.49015625 146.6696875 30.2578125 145.984375 C44.81509397 132.26598772 52.88676717 114.76212747 53.625 94.9375 C53.68300781 93.6390918 53.68300781 93.6390918 53.7421875 92.31445312 C53.83520481 90.20993641 53.91862669 88.1049991 54 86 C53.01 86 52.02 86 51 86 C51 85.34 51 84.68 51 84 C48.36 83.67 45.72 83.34 43 83 C45.91765 81.0549 47.62537285 80.54723683 51 80 C51 79.01 51 78.02 51 77 C51.99 77 52.98 77 54 77 C52.69117785 56.91358667 43.8606145 36.97977502 29 23 C20.1280128 15.21975663 10.66571573 9.95063938 0 5 C-0.64855957 4.6496167 -1.29711914 4.2992334 -1.96533203 3.93823242 C-14.11551011 -1.66449548 -36.45770286 0.30885786 -48.75 4.6171875 C-49.8225 5.07351562 -50.895 5.52984375 -52 6 C-52.63164063 6.26844727 -53.26328125 6.53689453 -53.9140625 6.81347656 C-77.08742515 16.91267853 -92.50984041 33.74412844 -101.80859375 57.13671875 C-104.94191548 66.53793927 -105.26853332 75.85546739 -105.125 85.6875 C-105.11597656 86.87794922 -105.10695313 88.06839844 -105.09765625 89.29492188 C-105.07434772 92.19683367 -105.04163123 95.09830317 -105 98 C-105.66 98 -106.32 98 -107 98 C-108.73738401 91.98491352 -109.35406263 86.56255626 -109.3125 80.3125 C-109.30758545 79.43400391 -109.3026709 78.55550781 -109.29760742 77.65039062 C-108.88833496 54.7647142 -97.65049807 35.26294449 -81.5234375 19.59375 C-59.12940155 -1.2056642 -29.34221773 -7.73750262 0 0 Z M62 89 C62.33 89.66 62.66 90.32 63 91 C63.33 90.34 63.66 89.68 64 89 C63.34 89 62.68 89 62 89 Z " fill="#F0B102" transform="translate(123,12)"/>
<path d="M0 0 C63.36 0 126.72 0 192 0 C192.0825 15.943125 192.165 31.88625 192.25 48.3125 C192.28641602 53.34927002 192.32283203 58.38604004 192.36035156 63.57543945 C192.37841797 69.71911621 192.37841797 69.71911621 192.3817749 72.59391785 C192.38792314 74.60465533 192.40200367 76.61537792 192.42230225 78.62602234 C192.45149397 81.66931842 192.45562712 84.71171229 192.45410156 87.75512695 C192.468494 88.65306378 192.48288643 89.55100061 192.497715 90.47614765 C192.45695351 96.53191243 192.45695351 96.53191243 189.97161865 99.07780457 C189.3209845 99.38212906 188.67035034 99.68645355 188 100 C188.33 97.69 188.66 95.38 189 93 C188.01 92.67 187.02 92.34 186 92 C185.26919734 90.02253397 184.60578253 88.01927511 184 86 C183.34 85.01 182.68 84.02 182 83 C181.50932294 81.05430945 181.07964017 79.09291813 180.6875 77.125 C175.255338 52.86851422 161.51933071 34.34370847 141 21 C140.01902344 20.30261719 139.03804687 19.60523437 138.02734375 18.88671875 C122.50949421 9.21559445 99.77977799 7.40236439 82.1875 11.1875 C80.11381701 11.75209053 78.05088012 12.3574937 76 13 C74.82695313 13.36351562 73.65390625 13.72703125 72.4453125 14.1015625 C60.64920692 18.03359769 51.36845932 23.89470374 42 32 C41.24847656 32.64324219 40.49695312 33.28648438 39.72265625 33.94921875 C26.33501816 46.3016089 15.90181342 66.1326091 14.86376953 84.39697266 C14.60237392 93.01328632 14.78165569 101.46176448 16 110 C16.66 110 17.32 110 18 110 C17.835 108.865625 17.67 107.73125 17.5 106.5625 C14.88096095 82.10529714 20.86214535 61.39188896 35.875 41.8125 C47.86470595 27.30105857 66.17889389 15.98969175 85 13 C89.15010341 12.74945473 93.28130593 12.76557921 97.4375 12.8125 C98.51837891 12.81314453 99.59925781 12.81378906 100.71289062 12.81445312 C110.32917905 12.86693742 118.29993566 13.02026975 126.875 17.625 C127.56480957 17.984729 128.25461914 18.34445801 128.96533203 18.71508789 C151.22857217 30.48946507 167.36346531 47.68298685 175.5 71.75 C177.14196472 77.56169091 177.43313792 82.99622715 177 89 C176.67 89 176.34 89 176 89 C175.65388672 87.49373047 175.65388672 87.49373047 175.30078125 85.95703125 C169.5975154 61.75387121 159.01079456 40.98445022 137.37890625 27.34765625 C120.14799426 17.5192841 101.28874865 13.77975027 81.59375 17.71875 C78.29413037 18.64026539 75.17619097 19.72029294 72 21 C70.45892578 21.54333984 70.45892578 21.54333984 68.88671875 22.09765625 C61.33547379 24.92817374 55.26807817 28.97389398 49 34 C48.29101562 34.54398438 47.58203125 35.08796875 46.8515625 35.6484375 C34.00126223 46.06073613 23.08466183 64.08839063 21.16552734 80.69970703 C20.51285391 89.76974988 20.79136674 98.91642887 21 108 C21.66 108.33 22.32 108.66 23 109 C21 111 19 113 17 115 C16.60879475 120.08566831 17.12712048 122.81038403 20 127 C20 127.66 20 128.32 20 129 C20.99 129.37125 20.99 129.37125 22 129.75 C24.31535424 130.71473093 26.37242194 131.74415893 28.5625 132.9375 C38.0400826 137.66296218 48.11373484 138.58323735 58.5625 138.5625 C59.81321289 138.56080811 61.06392578 138.55911621 62.35253906 138.55737305 C75.70374043 138.30655568 88.17420633 135.52076439 101 132 C101.87736816 131.76555176 102.75473633 131.53110352 103.65869141 131.28955078 C115.79145306 128.02405913 126.96857134 123.68232745 138.11743164 117.9050293 C141.43723804 116.20051062 144.71748143 114.68847335 148.23046875 113.421875 C151.17850797 112.35367725 153.62687126 111.15509677 156.1875 109.3125 C160.02522244 106.65355443 163.91657991 104.10018165 167.875 101.625 C168.96554688 100.93664062 170.05609375 100.24828125 171.1796875 99.5390625 C174 98 174 98 177 98 C177.60878501 119.75842724 173.13435413 137.58354588 158 154 C157.22785156 154.85207031 156.45570313 155.70414063 155.66015625 156.58203125 C142.70819041 170.2296793 124.51976078 179.43348188 105.5703125 180.3515625 C95.75545094 180.59934067 86.31055068 180.42020229 77 177 C75.93007812 176.61328125 74.86015625 176.2265625 73.7578125 175.828125 C68.58114813 173.81704675 64.76556653 172.18297603 61 168 C65.86008136 168.33907544 69.78528685 169.61805263 74.3125 171.4375 C91.42487011 178.15813571 110.92918921 178.10159988 128.08886719 171.15429688 C146.87735811 162.63298804 162.28339143 147.28979818 169.80957031 127.91601562 C172.58004795 120.084704 175.20709311 112.01140058 175.0625 103.625 C175.0315625 101.830625 175.0315625 101.830625 175 100 C174.59547607 100.43352783 174.19095215 100.86705566 173.77416992 101.3137207 C169.32564376 105.93790437 164.63877633 109.62866509 159.3125 113.1875 C158.4879834 113.74284424 157.6634668 114.29818848 156.81396484 114.87036133 C135.55441811 129.05209828 113.41268509 141.17792531 89 149 C88.22350098 149.2568457 87.44700195 149.51369141 86.64697266 149.77832031 C74.97153677 153.51426796 63.5599301 154.46943769 51.375 154.5 C50.69208893 154.50458221 50.00917786 154.50916443 49.30557251 154.5138855 C36.95846613 154.54678831 25.61546524 153.36599801 16 145 C8.2345868 136.71491287 6.67255109 130.13326301 7 119 C7 118.34 7 117.68 7 117 C5.68 118.65 4.36 120.3 3 122 C-0.15169974 108.08027202 -0.39577889 94.59791729 -0.29296875 80.37109375 C-0.28854534 78.30342859 -0.28549256 76.23576003 -0.28381348 74.16809082 C-0.26823034 66.59117522 -0.22634732 59.01433204 -0.1875 51.4375 C-0.125625 34.463125 -0.06375 17.48875 0 0 Z M185 101 C185.99 101.495 185.99 101.495 187 102 C186.01 102.495 186.01 102.495 185 103 C185 102.34 185 101.68 185 101 Z " fill="#FAD31F" transform="translate(0,0)"/>
<path d="M0 0 C0.33 0 0.66 0 1 0 C1.82918454 11.6085835 -1.65242023 23.73944942 -7 34 C-7.39574219 34.83402344 -7.79148437 35.66804688 -8.19921875 36.52734375 C-16.95586846 54.01555249 -32.53983927 68.3867204 -51.15917969 74.73632812 C-72.80806586 81.15152217 -92.97612884 78.22395304 -113 68 C-113 67.34 -113 66.68 -113 66 C-111.30810547 65.5978125 -111.30810547 65.5978125 -109.58203125 65.1875 C-76.97421595 57.18293406 -48.3389748 42.06505298 -22.1875 21.125 C-21.54756104 20.61396729 -20.90762207 20.10293457 -20.24829102 19.57641602 C-16.53940932 16.52451643 -13.4150391 13.28707817 -10.35522461 9.58837891 C-8.62587423 7.56150923 -6.72286512 5.84023974 -4.6875 4.125 C-4.01074219 3.55007812 -3.33398438 2.97515625 -2.63671875 2.3828125 C-1.82654297 1.69832031 -1.82654297 1.69832031 -1 1 C-0.67 0.67 -0.34 0.34 0 0 Z " fill="#05060E" transform="translate(175,99)"/>
<path d="M0 0 C0.33 0 0.66 0 1 0 C1.13277344 0.99902344 1.26554688 1.99804688 1.40234375 3.02734375 C1.57894531 4.31769531 1.75554688 5.60804687 1.9375 6.9375 C2.11152344 8.22527344 2.28554688 9.51304688 2.46484375 10.83984375 C2.66162423 13.85466313 2.66162423 13.85466313 4 15 C5.32 13.02 6.64 11.04 8 9 C8.33 9.66 8.66 10.32 9 11 C8.67 11.99 8.34 12.98 8 14 C7.20591925 23.59005218 9.19807181 30.47429914 15.13671875 38.078125 C24.0958653 47.31900572 38.22867782 50.90136891 50.69921875 51.30078125 C52.69523235 51.31909027 54.69142808 51.3226193 56.6875 51.3125 C57.73317139 51.31193604 58.77884277 51.31137207 59.85620117 51.31079102 C67.27621061 51.22328146 74.08932115 50.38407089 81.26953125 48.55859375 C84 48 84 48 87 49 C68.15716258 56.97869566 51.61441476 61.47632794 31 61 C44.38760486 74.30206106 61.68977163 81.61683671 80 85 C81.66709561 85.33118141 83.3339349 85.66367284 85 86 C85 86.33 85 86.66 85 87 C56.95 87 28.9 87 0 87 C0 58.29 0 29.58 0 0 Z " fill="#030201" transform="translate(0,105)"/>
<path d="M0 0 C27.72 0 55.44 0 84 0 C84 0.33 84 0.66 84 1 C83.05640625 1.17015625 82.1128125 1.3403125 81.140625 1.515625 C61.95099617 5.13776378 46.59914223 11.84945483 32 25 C31.22011719 25.69738281 30.44023437 26.39476563 29.63671875 27.11328125 C13.29612252 42.55077027 4.20253471 63.07205649 1 85 C0.67 85 0.34 85 0 85 C0 56.95 0 28.9 0 0 Z " fill="#020100" transform="translate(0,0)"/>
<path d="M0 0 C0.33 0 0.66 0 1 0 C1 27.39 1 54.78 1 83 C-26.72 83 -54.44 83 -83 83 C-83 82.67 -83 82.34 -83 82 C-82.36578125 81.9484375 -81.7315625 81.896875 -81.078125 81.84375 C-57.91238368 79.02802454 -34.62233657 65.44138146 -20.17602539 47.23168945 C-9.37603223 32.99773026 -3.02349977 17.62382104 0 0 Z " fill="#020100" transform="translate(191,109)"/>
<path d="M0 0 C27.39 0 54.78 0 83 0 C83 27.72 83 55.44 83 84 C82.67 84 82.34 84 82 84 C81.90203125 83.26136719 81.8040625 82.52273437 81.703125 81.76171875 C80.61982008 74.41205518 78.83454023 67.85839803 76 61 C75.65195313 60.12859375 75.30390625 59.2571875 74.9453125 58.359375 C64.80140929 34.43375502 46.80577264 17.1072919 23.08056641 6.80908203 C17.24029401 4.53794114 11.12922028 3.23702621 5 2 C4.02417969 1.80277344 3.04835938 1.60554687 2.04296875 1.40234375 C1.36878906 1.26957031 0.69460937 1.13679687 0 1 C0 0.67 0 0.34 0 0 Z " fill="#020100" transform="translate(109,0)"/>
<path d="M0 0 C0.60878501 21.75842724 -3.86564587 39.58354588 -19 56 C-20.15822266 57.27810547 -20.15822266 57.27810547 -21.33984375 58.58203125 C-34.29180959 72.2296793 -52.48023922 81.43348188 -71.4296875 82.3515625 C-81.24454906 82.59934067 -90.68944932 82.42020229 -100 79 C-101.06992188 78.61328125 -102.13984375 78.2265625 -103.2421875 77.828125 C-108.41885187 75.81704675 -112.23443347 74.18297603 -116 70 C-111.13991864 70.33907544 -107.21471315 71.61805263 -102.6875 73.4375 C-85.57512989 80.15813571 -66.07081079 80.10159988 -48.91113281 73.15429688 C-30.12264189 64.63298804 -14.71660857 49.28979818 -7.19042969 29.91601562 C-4.41995205 22.084704 -1.79290689 14.01140058 -1.9375 5.625 C-1.9684375 3.830625 -1.9684375 3.830625 -2 2 C-2.40452393 2.43352783 -2.80904785 2.86705566 -3.22583008 3.3137207 C-7.67435624 7.93790437 -12.36122367 11.62866509 -17.6875 15.1875 C-18.5120166 15.74284424 -19.3365332 16.29818848 -20.18603516 16.87036133 C-41.44558189 31.05209828 -63.58731491 43.17792531 -88 51 C-88.77649902 51.2568457 -89.55299805 51.51369141 -90.35302734 51.77832031 C-102.02846323 55.51426796 -113.4400699 56.46943769 -125.625 56.5 C-126.30791107 56.50458221 -126.99082214 56.50916443 -127.69442749 56.5138855 C-140.04153387 56.54678831 -151.38453476 55.36599801 -161 47 C-167.69660783 39.85524442 -170.57632825 33.54653475 -170.46875 23.703125 C-169.71322654 19.34627305 -167.25409848 16.83765136 -164 14 C-163.34 14.33 -162.68 14.66 -162 15 C-162.99 15.9590625 -162.99 15.9590625 -164 16.9375 C-166.31590502 20.48372957 -166.71843492 22.50106816 -166.50390625 26.66015625 C-165.37045246 31.92324786 -162.12555122 35.53075933 -157.7734375 38.5390625 C-135.00487616 51.56054741 -107.02353321 45.97703975 -82.9855957 39.68066406 C-63.67217056 34.30163176 -43.12083319 26.40819489 -26.625 14.77734375 C-21.93211851 11.59987191 -17.04986269 8.72131174 -12.20556641 5.78198242 C-11.44937012 5.32283447 -10.69317383 4.86368652 -9.9140625 4.390625 C-9.2329541 3.97844727 -8.5518457 3.56626953 -7.85009766 3.14160156 C-2.75876818 0 -2.75876818 0 0 0 Z " fill="#FCF9F1" transform="translate(177,98)"/>
<path d="M0 0 C11.63121498 9.44676341 20.35308131 20.5123749 27 34 C27.45246094 34.9178125 27.90492188 35.835625 28.37109375 36.78125 C32.53769782 45.58428292 35.48201697 54.23449631 36 64 C36.09667969 65.65708984 36.09667969 65.65708984 36.1953125 67.34765625 C36.25332031 69.09369141 36.25332031 69.09369141 36.3125 70.875 C36.36857422 72.51082031 36.36857422 72.51082031 36.42578125 74.1796875 C36 77 36 77 33.98046875 78.8828125 C33.32691406 79.25148438 32.67335937 79.62015625 32 80 C32.33 77.69 32.66 75.38 33 73 C32.01 72.67 31.02 72.34 30 72 C29.26919734 70.02253397 28.60578253 68.01927511 28 66 C27.34 65.01 26.68 64.02 26 63 C25.50932294 61.05430945 25.07964017 59.09291813 24.6875 57.125 C19.255338 32.86851422 5.51933071 14.34370847 -15 1 C-15.98097656 0.30261719 -16.96195313 -0.39476563 -17.97265625 -1.11328125 C-34.12205655 -11.17800428 -56.77220809 -12.0154288 -75.08984375 -9.0234375 C-77.52573558 -8.99354926 -78.83698928 -9.90846212 -81 -11 C-92.1617602 -12.99084027 -100.88626361 -8.9547919 -110 -3 C-120.38234831 4.31757943 -129.59218578 12.60780108 -136.875 23.0625 C-137.926875 24.5165625 -137.926875 24.5165625 -139 26 C-139.66 26 -140.32 26 -141 26 C-141.103125 26.721875 -141.20625 27.44375 -141.3125 28.1875 C-142.06793947 31.27793421 -143.15531315 33.41743841 -145 36 C-145.66 36 -146.32 36 -147 36 C-141.87931719 18.09101509 -123.34010128 0.89202698 -107.9453125 -8.40625 C-73.48990016 -27.050558 -30.79775771 -24.30378607 0 0 Z M29 81 C29.99 81.495 29.99 81.495 31 82 C30.01 82.495 30.01 82.495 29 83 C29 82.34 29 81.68 29 81 Z " fill="#F5C603" transform="translate(156,20)"/>
<path d="M0 0 C1.08087891 0.00064453 2.16175781 0.00128906 3.27539062 0.00195312 C12.89167905 0.05443742 20.86243566 0.20776975 29.4375 4.8125 C30.12730957 5.172229 30.81711914 5.53195801 31.52783203 5.90258789 C53.79107217 17.67696507 69.92596531 34.87048685 78.0625 58.9375 C79.70446472 64.74919091 79.99563792 70.18372715 79.5625 76.1875 C79.2325 76.1875 78.9025 76.1875 78.5625 76.1875 C78.21638672 74.68123047 78.21638672 74.68123047 77.86328125 73.14453125 C72.1600154 48.94137121 61.57329456 28.17195022 39.94140625 14.53515625 C22.71049426 4.7067841 3.85124865 0.96725027 -15.84375 4.90625 C-19.14336963 5.82776539 -22.26130903 6.90779294 -25.4375 8.1875 C-26.97857422 8.73083984 -26.97857422 8.73083984 -28.55078125 9.28515625 C-36.10202621 12.11567374 -42.16942183 16.16139398 -48.4375 21.1875 C-49.14648438 21.73148438 -49.85546875 22.27546875 -50.5859375 22.8359375 C-63.43623777 33.24823613 -74.35283817 51.27589063 -76.27197266 67.88720703 C-76.92464609 76.95724988 -76.64613326 86.10392887 -76.4375 95.1875 C-75.7775 95.5175 -75.1175 95.8475 -74.4375 96.1875 C-76.4375 98.1875 -78.4375 100.1875 -80.4375 102.1875 C-80.82870525 107.27316831 -80.31037952 109.99788403 -77.4375 114.1875 C-77.4375 114.8475 -77.4375 115.5075 -77.4375 116.1875 C-76.4475 116.55875 -76.4475 116.55875 -75.4375 116.9375 C-73.12214576 117.90223093 -71.06507806 118.93165893 -68.875 120.125 C-59.3974174 124.85046218 -49.32376516 125.77073735 -38.875 125.75 C-37.62428711 125.74830811 -36.37357422 125.74661621 -35.08496094 125.74487305 C-21.73375957 125.49405568 -9.26329367 122.70826439 3.5625 119.1875 C4.87855225 118.83582764 4.87855225 118.83582764 6.22119141 118.47705078 C18.46407895 115.18191912 29.71740306 110.79549836 40.94360352 104.91674805 C44.47694736 103.09458883 47.56459807 101.70560334 51.5625 101.1875 C49.41502 105.48245999 42.81505881 107.17955377 38.54296875 109.23193359 C36.6886551 110.12663079 34.84393273 111.04113045 33 111.95703125 C4.0030961 126.04215014 -36.90394685 140.25474436 -69.02734375 129.3046875 C-76.77442198 126.03054795 -83.494485 121.85747438 -87.4375 114.1875 C-88.47041601 109.49242721 -88.15601383 106.31317167 -85.5625 102.25 C-84.86125 101.569375 -84.16 100.88875 -83.4375 100.1875 C-82.4475 99.1975 -82.4475 99.1975 -81.4375 98.1875 C-80.4475 97.6925 -80.4475 97.6925 -79.4375 97.1875 C-79.6025 96.053125 -79.7675 94.91875 -79.9375 93.75 C-82.55653905 69.29279714 -76.57535465 48.57938896 -61.5625 29 C-46.32932562 10.56290749 -23.8242941 -0.26896113 0 0 Z " fill="#FDD019" transform="translate(97.4375,12.8125)"/>
<path d="M0 0 C1.57007812 0.40025391 1.57007812 0.40025391 3.171875 0.80859375 C11.12728771 3.12720497 17.37132996 7.10290091 24 12 C24.85464844 12.60714844 25.70929688 13.21429687 26.58984375 13.83984375 C44.03096864 26.87246946 56.06341459 47.12766893 59.58984375 68.58984375 C59.82302492 71.0717858 59.98902311 73.50824519 60 76 C59.01 76.33 58.02 76.66 57 77 C56.76925781 75.85144531 56.53851563 74.70289062 56.30078125 73.51953125 C51.26189673 49.20257864 40.83408829 27.96349816 19.7421875 13.69921875 C1.12970346 2.16584189 -20.51161623 -1.28476618 -42.1796875 2.61328125 C-45.60790141 3.51190083 -48.73919425 4.61258986 -52 6 C-52.63164063 6.26844727 -53.26328125 6.53689453 -53.9140625 6.81347656 C-77.08742515 16.91267853 -92.50984041 33.74412844 -101.80859375 57.13671875 C-104.94191548 66.53793927 -105.26853332 75.85546739 -105.125 85.6875 C-105.11146484 87.47317383 -105.11146484 87.47317383 -105.09765625 89.29492188 C-105.07434772 92.19683367 -105.04163123 95.09830317 -105 98 C-105.66 98 -106.32 98 -107 98 C-108.73738401 91.98491352 -109.35406263 86.56255626 -109.3125 80.3125 C-109.30758545 79.43400391 -109.3026709 78.55550781 -109.29760742 77.65039062 C-108.88833496 54.7647142 -97.65049807 35.26294449 -81.5234375 19.59375 C-59.12940155 -1.2056642 -29.34221773 -7.73750262 0 0 Z " fill="#19160D" transform="translate(123,12)"/>
<path d="M0 0 C0.66 0.33 1.32 0.66 2 1 C0.66666667 2.33333333 -0.66666667 3.66666667 -2 5 C-1.67 5 -1.34 5 -1 5 C-1.71747302 17.29600315 -6.29281898 26.79843041 -15.25 35.3125 C-23.53054385 42.3460584 -33.33919 44.74057323 -44 44 C-47.125 43 -47.125 43 -49 42 C-49 40.68 -49 39.36 -49 38 C-46.54296875 36.140625 -46.54296875 36.140625 -43.1875 34.25 C-41.97971545 33.54648562 -40.77401346 32.83938497 -39.5703125 32.12890625 C-38.96477539 31.77328613 -38.35923828 31.41766602 -37.73535156 31.05126953 C-33.27246804 28.34767127 -29.14997248 25.153083 -25 22 C-24.43071777 21.57283691 -23.86143555 21.14567383 -23.27490234 20.70556641 C-13.62936026 13.46026524 -13.62936026 13.46026524 -5.4296875 4.65625 C-3.80590899 2.7751514 -2.02688366 1.42664773 0 0 Z " fill="#0E101C" transform="translate(170,104)"/>
<path d="M0 0 C1.08087891 0.00064453 2.16175781 0.00128906 3.27539062 0.00195312 C12.89167905 0.05443742 20.86243566 0.20776975 29.4375 4.8125 C30.12730957 5.172229 30.81711914 5.53195801 31.52783203 5.90258789 C53.79107217 17.67696507 69.92596531 34.87048685 78.0625 58.9375 C79.70446472 64.74919091 79.99563792 70.18372715 79.5625 76.1875 C79.2325 76.1875 78.9025 76.1875 78.5625 76.1875 C78.21638672 74.68123047 78.21638672 74.68123047 77.86328125 73.14453125 C72.1600154 48.94137121 61.57329456 28.17195022 39.94140625 14.53515625 C22.71049426 4.7067841 3.85124865 0.96725027 -15.84375 4.90625 C-19.14336963 5.82776539 -22.26130903 6.90779294 -25.4375 8.1875 C-26.97857422 8.73083984 -26.97857422 8.73083984 -28.55078125 9.28515625 C-36.10202621 12.11567374 -42.16942183 16.16139398 -48.4375 21.1875 C-49.14648438 21.73148438 -49.85546875 22.27546875 -50.5859375 22.8359375 C-63.39870486 33.2178241 -74.37567549 51.2629414 -76.27197266 67.83984375 C-76.93602682 77.25805141 -76.64494374 86.75572481 -76.4375 96.1875 C-77.0975 96.1875 -77.7575 96.1875 -78.4375 96.1875 C-79.98852264 90.66931986 -80.7959105 85.72484008 -80.75 80 C-80.74508545 79.26168945 -80.7401709 78.52337891 -80.73510742 77.76269531 C-80.28616572 56.46213829 -69.97496722 37.15482324 -55.38671875 22.06640625 C-40.21312345 7.83595947 -20.70113974 -0.23370271 0 0 Z " fill="#E2E2E2" transform="translate(97.4375,12.8125)"/>
<path d="M0 0 C0.66 0 1.32 0 2 0 C4.81053944 5.62107887 2.66517228 15.5034443 1.09765625 21.38671875 C-0.12758816 24.67466419 -1.50822056 27.82395344 -3 31 C-3.28794434 31.63969727 -3.57588867 32.27939453 -3.87255859 32.93847656 C-8.13161573 42.36940732 -12.91992686 50.34619679 -20 58 C-20.68578125 58.77730469 -21.3715625 59.55460937 -22.078125 60.35546875 C-35.59965044 74.90362853 -55.64932153 84.14096297 -75.4375 85.38671875 C-94.1497284 85.91983697 -110.49210538 80.15184431 -126 70 C-126.33 69.34 -126.66 68.68 -127 68 C-121.65050356 68.50364216 -117.84453956 69.83864881 -113.125 72.375 C-96.13948686 81.25092234 -76.03565098 83.16782547 -57.59375 77.39453125 C-47.20378774 73.36277416 -37.299927 68.55713197 -29 61 C-28.25492187 60.33484375 -27.50984375 59.6696875 -26.7421875 58.984375 C-17.15531411 49.9499655 -10.9982491 39.09016007 -6 27 C-5.74452393 26.39994141 -5.48904785 25.79988281 -5.22583008 25.18164062 C-3.07893682 19.87856826 -2.10652446 14.64928879 -1.3125 9 C-1.11817383 7.69482422 -1.11817383 7.69482422 -0.91992188 6.36328125 C-0.60542482 4.24333814 -0.30158904 2.12181791 0 0 Z " fill="#1E1809" transform="translate(180,99)"/>
<path d="M0 0 C0.60878501 21.75842724 -3.86564587 39.58354588 -19 56 C-19.77214844 56.85207031 -20.54429687 57.70414063 -21.33984375 58.58203125 C-34.29180959 72.2296793 -52.48023922 81.43348188 -71.4296875 82.3515625 C-81.24454906 82.59934067 -90.68944932 82.42020229 -100 79 C-101.60488281 78.41992188 -101.60488281 78.41992188 -103.2421875 77.828125 C-108.41885187 75.81704675 -112.23443347 74.18297603 -116 70 C-111.13991864 70.33907544 -107.21471315 71.61805263 -102.6875 73.4375 C-85.57512989 80.15813571 -66.07081079 80.10159988 -48.91113281 73.15429688 C-30.12264189 64.63298804 -14.71660857 49.28979818 -7.19042969 29.91601562 C-4.41995205 22.084704 -1.79290689 14.01140058 -1.9375 5.625 C-1.958125 4.42875 -1.97875 3.2325 -2 2 C-2.44730469 2.48210937 -2.89460938 2.96421875 -3.35546875 3.4609375 C-9.78742077 10.18088737 -9.78742077 10.18088737 -14 11 C-14.99 10.34 -15.98 9.68 -17 9 C-14.73437454 7.49157829 -12.46313837 5.99317749 -10.1875 4.5 C-9.54490234 4.07074219 -8.90230469 3.64148438 -8.24023438 3.19921875 C-3.33984375 0 -3.33984375 0 0 0 Z " fill="#EFEEEF" transform="translate(177,98)"/>
<path d="M0 0 C2.31 0.33 4.62 0.66 7 1 C7.495 2.98 7.495 2.98 8 5 C6.35 6.32 4.7 7.64 3 9 C3 8.01 3 7.02 3 6 C2.34 6.66 1.68 7.32 1 8 C1 8.99 1 9.98 1 11 C1.99 11.66 2.98 12.32 4 13 C3.68171793 15.94410917 3.46553118 17.54945144 1.30078125 19.64453125 C-1.51137504 21.30126849 -3.31626091 21.40149991 -6.5625 21.375 C-7.98755859 21.38660156 -7.98755859 21.38660156 -9.44140625 21.3984375 C-12.37530085 20.9415562 -13.24883268 20.34815618 -15 18 C-15.6875 15.8125 -15.6875 15.8125 -16 14 C-16.86625 15.36125 -16.86625 15.36125 -17.75 16.75 C-21.46606335 22.11764706 -21.46606335 22.11764706 -24 24 C-27.625 24.4375 -27.625 24.4375 -31 24 C-33.46732283 20.29901576 -33.68194709 17.29464299 -33 13 C-31.25364203 9.85655565 -29.53137274 7.53137274 -27 5 C-23.375 5.375 -23.375 5.375 -20 6 C-19 9 -19 9 -19.8203125 11.0078125 C-23.37624698 16.77822115 -23.37624698 16.77822115 -26.8125 18 C-27.534375 18 -28.25625 18 -29 18 C-29 18.99 -29 19.98 -29 21 C-23.32274544 19.26528333 -21.14941124 16.04339776 -18.3125 11 C-17.12305741 8.28127408 -16.42991058 5.92339197 -16 3 C-12.7 3.33 -9.4 3.66 -6 4 C-6.4979837 7.73487777 -6.87491756 9.81237635 -9 13 C-9 13.99 -9 14.98 -9 16 C-5.51578977 12.16736874 -4.34949615 8.94815254 -3 4 C-1.375 1.5625 -1.375 1.5625 0 0 Z " fill="#EAEAEC" transform="translate(149,76)"/>
<path d="M0 0 C3.375 0.375 3.375 0.375 5.375 1.375 C5.375 2.035 5.375 2.695 5.375 3.375 C4.4675 3.560625 3.56 3.74625 2.625 3.9375 C-1.833036 5.90932362 -2.54481256 8.05461071 -4.625 12.375 C-4.295 12.705 -3.965 13.035 -3.625 13.375 C-0.655 8.92 -0.655 8.92 2.375 4.375 C3.695 4.705 5.015 5.035 6.375 5.375 C1.03583693 29.46634554 1.03583693 29.46634554 -6.625 34.375 C-9.4375 34.125 -9.4375 34.125 -11.625 33.375 C-11.625 32.715 -11.625 32.055 -11.625 31.375 C-9.975 31.045 -8.325 30.715 -6.625 30.375 C-5.15560547 26.07177317 -3.85056737 21.75202633 -2.625 17.375 C-2.955 17.705 -3.285 18.035 -3.625 18.375 C-6.0625 18.625 -6.0625 18.625 -8.625 18.375 C-9.285 17.385 -9.945 16.395 -10.625 15.375 C-11.0375 16.2 -11.45 17.025 -11.875 17.875 C-12.74125 19.1125 -12.74125 19.1125 -13.625 20.375 C-14.945 20.375 -16.265 20.375 -17.625 20.375 C-17.955 18.065 -18.285 15.755 -18.625 13.375 C-19.01171875 14.0246875 -19.3984375 14.674375 -19.796875 15.34375 C-20.57804687 16.59671875 -20.57804687 16.59671875 -21.375 17.875 C-21.88546875 18.7103125 -22.3959375 19.545625 -22.921875 20.40625 C-23.48390625 21.0559375 -24.0459375 21.705625 -24.625 22.375 C-25.945 22.375 -27.265 22.375 -28.625 22.375 C-29.13637226 15.47147445 -27.49464374 10.62672386 -24.625 4.375 C-22.975 4.705 -21.325 5.035 -19.625 5.375 C-19.955 7.025 -20.285 8.675 -20.625 10.375 C-20.22667969 9.8696875 -19.82835938 9.364375 -19.41796875 8.84375 C-18.88816406 8.1940625 -18.35835937 7.544375 -17.8125 6.875 C-17.29042969 6.2253125 -16.76835938 5.575625 -16.23046875 4.90625 C-14.625 3.375 -14.625 3.375 -11.625 3.375 C-11.955 6.345 -12.285 9.315 -12.625 12.375 C-11.965 11.385 -11.305 10.395 -10.625 9.375 C-9.965 9.375 -9.305 9.375 -8.625 9.375 C-8.5425 8.818125 -8.46 8.26125 -8.375 7.6875 C-6.81919365 2.89043043 -5.13211699 0.53090865 0 0 Z " fill="#E8E8EA" transform="translate(108.625,84.625)"/>
<path d="M0 0 C0.99 0.495 0.99 0.495 2 1 C-2.53216053 5.90185338 -7.37289305 10.26923098 -12.625 14.375 C-13.16278076 14.80345215 -13.70056152 15.2319043 -14.25463867 15.67333984 C-18.11118777 18.63193385 -22.01759272 21 -27 21 C-27 21.66 -27 22.32 -27 23 C-27.969375 23.4846875 -28.93875 23.969375 -29.9375 24.46875 C-30.57679443 24.78859863 -31.21608887 25.10844727 -31.87475586 25.43798828 C-33.3124219 26.15640841 -34.75075533 26.87349429 -36.18969727 27.58935547 C-39.81858756 29.39691505 -43.43646549 31.21948377 -47.02734375 33.1015625 C-60.55705035 40.14396122 -73.76977509 45.19413048 -89 47 C-90.16196899 47.25015869 -90.16196899 47.25015869 -91.34741211 47.50537109 C-105.40783288 50.12722222 -120.52389776 48.43918662 -134 44 C-130.98968256 43.06576355 -130.13349732 42.95550089 -127 44 C-108.96424938 45.18125045 -91.24026672 44.80543116 -74 39 C-73.16033691 38.72124023 -72.32067383 38.44248047 -71.45556641 38.15527344 C-45.38792841 29.28766104 -22.09930927 16.22918024 0 0 Z " fill="#FCCB12" transform="translate(163,109)"/>
<path d="M0 0 C0.53882813 0.31839844 1.07765625 0.63679687 1.6328125 0.96484375 C-1.00336447 4.24352981 -3.99641041 5.0209402 -7.9296875 6.27734375 C-15.48675903 8.86923192 -21.99035908 12.12523804 -28.1171875 17.27734375 C-30.3671875 18.96484375 -30.3671875 18.96484375 -33.3671875 19.40234375 C-36.56392088 19.68683314 -36.56392088 19.68683314 -38.5546875 22.40234375 C-42.64567043 26.12968376 -46.99818012 26.33485514 -52.3671875 26.96484375 C-47.45862774 14.83289207 -30.15249548 5.73075617 -18.98046875 0.28515625 C-12.92174793 -1.92873309 -6.04301344 -2.64257189 0 0 Z " fill="#F8E15E" transform="translate(77.3671875,9.03515625)"/>
<path d="M0 0 C0.99 0.33 1.98 0.66 3 1 C-17.91304262 16.51778593 -49.08747036 36 -76 36 C-76 36.66 -76 37.32 -76 38 C-75.01 38.33 -74.02 38.66 -73 39 C-76.98196457 40.05404945 -79.98195309 39.84098656 -84 39 C-84 39.33 -84 39.66 -84 40 C-85.12019531 40.06058594 -86.24039063 40.12117188 -87.39453125 40.18359375 C-88.86719984 40.26801424 -90.33985544 40.35266149 -91.8125 40.4375 C-92.55048828 40.47681641 -93.28847656 40.51613281 -94.04882812 40.55664062 C-97.23071342 40.74381035 -99.96162378 40.98720793 -103 42 C-104.65 40.02 -106.3 38.04 -108 36 C-106.98164062 36.03480469 -105.96328125 36.06960937 -104.9140625 36.10546875 C-88.85583212 36.48534087 -74.73077245 34.35004202 -59.98193359 27.85009766 C-56.30156424 26.27150119 -52.5515077 24.87006552 -48.8125 23.4375 C-46.54974631 22.5582925 -44.28836486 21.67564438 -42.02734375 20.79199219 C-40.25875979 20.10108583 -38.48886538 19.41353585 -36.71875 18.7265625 C-28.47316518 15.42389546 -20.78875053 11.23955853 -13 7 C-5.51253482 3 -5.51253482 3 -2 3 C-2 2.34 -2 1.68 -2 1 C-1.34 0.67 -0.68 0.34 0 0 Z " fill="#EDA201" transform="translate(138,129)"/>
<path d="M0 0 C2.475 0.495 2.475 0.495 5 1 C4.5625 2.45833333 4.125 3.91666667 3.6875 5.375 C3.41421875 6.28894531 3.1409375 7.20289063 2.859375 8.14453125 C2.31405625 9.95647672 1.76268501 11.76662047 1.203125 13.57421875 C-0.46963198 19.01067893 -1.83259926 24.43239648 -3 30 C-3.99 29.67 -4.98 29.34 -6 29 C-6.6875 26.9375 -6.6875 26.9375 -7 25 C-7.99 26.32 -8.98 27.64 -10 29 C-10.928125 28.7525 -10.928125 28.7525 -11.875 28.5 C-13.96063386 27.92365356 -13.96063386 27.92365356 -16 28 C-20 28 -20 28 -22 27 C-23.32 28.65 -24.64 30.3 -26 32 C-27.32 31.67 -28.64 31.34 -30 31 C-30.3152595 25.01006953 -29.68219822 21.36439644 -27 16 C-25.35 16 -23.7 16 -22 16 C-22.78318689 19.91593446 -24.39179858 23.36406635 -26 27 C-24.16874953 25.16874953 -23.15949642 22.69949338 -21.9375 20.4375 C-21.38964844 19.42558594 -20.84179688 18.41367187 -20.27734375 17.37109375 C-19.85582031 16.58863281 -19.43429688 15.80617188 -19 15 C-17.68 15 -16.36 15 -15 15 C-15.66 18.3 -16.32 21.6 -17 25 C-16.66226563 24.30132812 -16.32453125 23.60265625 -15.9765625 22.8828125 C-15.30753906 21.51769531 -15.30753906 21.51769531 -14.625 20.125 C-13.96371094 18.76761719 -13.96371094 18.76761719 -13.2890625 17.3828125 C-12 15 -12 15 -10 13 C-6.875 13.375 -6.875 13.375 -4 14 C-3.896875 13.360625 -3.79375 12.72125 -3.6875 12.0625 C-2.76096927 7.93522674 -1.38339371 3.99357051 0 0 Z " fill="#EBD84B" transform="translate(110,40)"/>
<path d="M0 0 C0.66 0.33 1.32 0.66 2 1 C2 1.33 2 1.66 2 2 C3.98 1.67 5.96 1.34 8 1 C4.60632322 5.15171455 1.29709642 8.75097588 -3 12 C-12.20652274 19.30172493 -18.65714235 27.51106167 -24.23828125 37.765625 C-28.56573957 45.71049305 -28.56573957 45.71049305 -32 48 C-33.15664116 35.97093192 -26.29733999 25.50961587 -18.96875 16.50390625 C-13.59690338 10.29034423 -7.44224657 3.72112329 0 0 Z " fill="#686970" transform="translate(58,29)"/>
<path d="M0 0 C1.65 0.66 3.3 1.32 5 2 C4.61702918 9.27644558 2.58638161 15.62436962 0.2109375 22.4453125 C-1.09304644 26.27313632 -2.11515176 30.05840332 -3 34 C-4.32 34 -5.64 34 -7 34 C-6.67 30.04 -6.34 26.08 -6 22 C-10.70523714 24.35261857 -10.93642379 25.389551 -12.75 30.125 C-13.17796875 31.22070312 -13.6059375 32.31640625 -14.046875 33.4453125 C-14.51867188 34.70988281 -14.51867188 34.70988281 -15 36 C-16.32 36 -17.64 36 -19 36 C-18.00698195 32.79178783 -16.95271643 29.91088865 -15.375 26.9375 C-13.98138125 23.96022357 -13.71492257 22.23087753 -14 19 C-13.01 19 -12.02 19 -11 19 C-10.89300781 18.4534375 -10.78601562 17.906875 -10.67578125 17.34375 C-9.85276365 14.48935371 -8.60400352 12.11066977 -7.1875 9.5 C-6.43533203 8.09234375 -6.43533203 8.09234375 -5.66796875 6.65625 C-4.02107964 4.03356945 -2.27193343 2.08958736 0 0 Z " fill="#EEEEEF" transform="translate(51,83)"/>
<path d="M0 0 C3.97915085 -0.02934144 7.95827337 -0.04691265 11.9375 -0.0625 C13.05447266 -0.07087891 14.17144531 -0.07925781 15.32226562 -0.08789062 C25.11497009 -0.11660823 33.14118091 -0.06498009 41.875 4.625 C42.56480957 4.984729 43.25461914 5.34445801 43.96533203 5.71508789 C66.22857217 17.48946507 82.36346531 34.68298685 90.5 58.75 C92.14196472 64.56169091 92.43313792 69.99622715 92 76 C91.67 76 91.34 76 91 76 C90.65388672 74.49373047 90.65388672 74.49373047 90.30078125 72.95703125 C84.5975154 48.75387121 74.01079456 27.98445022 52.37890625 14.34765625 C43.07011359 9.03799657 32.57999391 3.99705189 21.71875 3.7890625 C20.71199219 3.76070312 19.70523438 3.73234375 18.66796875 3.703125 C16.5561677 3.65104606 14.44415968 3.60677341 12.33203125 3.5703125 C11.32527344 3.539375 10.31851563 3.5084375 9.28125 3.4765625 C8.36408203 3.45674316 7.44691406 3.43692383 6.50195312 3.41650391 C3.59895792 2.93323792 2.18541546 1.92406022 0 0 Z " fill="#ECE9DE" transform="translate(85,13)"/>
<path d="M0 0 C0.33 0 0.66 0 1 0 C1 1.65 1 3.3 1 5 C2.32 4.67 3.64 4.34 5 4 C4.566875 4.42410156 4.13375 4.84820312 3.6875 5.28515625 C0.68841098 8.44391899 -0.87917308 10.22133763 -1.5625 14.625 C-0.978931 18.12641402 0.01303353 20.10234057 2 23 C2 23.66 2 24.32 2 25 C2.66 25.2475 3.32 25.495 4 25.75 C6.31535424 26.71473093 8.37242194 27.74415893 10.5625 28.9375 C20.36516077 33.81429081 30.52737275 34.4936897 41.3125 34.375 C42.58472412 34.36992432 43.85694824 34.36484863 45.16772461 34.35961914 C53.17946723 34.25250891 60.61109402 33.62842312 68.34765625 31.55859375 C71.02920973 30.99384832 72.45416206 31.07812583 75 32 C72.01323583 33.24448507 69.1350702 34.2275914 66 35 C65.21109375 35.24878906 64.4221875 35.49757812 63.609375 35.75390625 C46.00830048 40.73125929 21.43665951 40.59243831 5.125 31.52734375 C0.6022186 28.27659462 -3.22592883 24.32221351 -5 19 C-5.13156527 15.31617231 -5.16982138 12.50946415 -4 9 C-2 7 -2 7 0 6 C0 4.02 0 2.04 0 0 Z " fill="#ECA402" transform="translate(18,104)"/>
<path d="M0 0 C2.97 0.495 2.97 0.495 6 1 C5.3995857 4.99417236 4.56309633 8.7594337 3.37109375 12.6171875 C3.05849609 13.63554688 2.74589844 14.65390625 2.42382812 15.703125 C2.09833984 16.74984375 1.77285156 17.7965625 1.4375 18.875 C1.10814453 19.94492188 0.77878906 21.01484375 0.43945312 22.1171875 C-0.37027487 24.74586967 -1.18352355 27.37340766 -2 30 C-2.99 30 -3.98 30 -5 30 C-4.67 26.37 -4.34 22.74 -4 19 C-8.70523714 21.35261857 -8.93642379 22.389551 -10.75 27.125 C-11.17796875 28.22070312 -11.6059375 29.31640625 -12.046875 30.4453125 C-12.51867187 31.70988281 -12.51867187 31.70988281 -13 33 C-13.99 33 -14.98 33 -16 33 C-15.45212815 28.39787644 -14.05813874 25.11627747 -12 21 C-12 19.68 -12 18.36 -12 17 C-11.01 17 -10.02 17 -9 17 C-8.82597656 16.14921875 -8.82597656 16.14921875 -8.6484375 15.28125 C-7.93435341 12.76905054 -6.90884498 10.77201658 -5.625 8.5 C-5.20476562 7.7471875 -4.78453125 6.994375 -4.3515625 6.21875 C-3.02029617 4.03331856 -1.56953552 2.01928546 0 0 Z " fill="#EEDB4B" transform="translate(77,46)"/>
<path d="M0 0 C0.60737224 21.70793382 -3.83225362 39.64856379 -19 56 C-27.64690722 65.09793814 -27.64690722 65.09793814 -32 68 C-32.99 67.67 -33.98 67.34 -35 67 C-32.7132516 63.85572094 -30.30745596 61.37650605 -27.3125 58.9375 C-13.22499868 46.84376051 -4.40350027 28.28194354 -2 10 C-1.93907988 8.54279072 -1.91235749 7.08326541 -1.9375 5.625 C-1.958125 4.42875 -1.97875 3.2325 -2 2 C-2.67095703 2.72316406 -2.67095703 2.72316406 -3.35546875 3.4609375 C-9.78742077 10.18088737 -9.78742077 10.18088737 -14 11 C-14.99 10.34 -15.98 9.68 -17 9 C-14.73437454 7.49157829 -12.46313837 5.99317749 -10.1875 4.5 C-9.54490234 4.07074219 -8.90230469 3.64148438 -8.24023438 3.19921875 C-3.33984375 0 -3.33984375 0 0 0 Z " fill="#ECE7D7" transform="translate(177,98)"/>
<path d="M0 0 C15.9457618 2.55132189 30.28630196 16.01677516 39.5625 28.625 C43.69378348 34.76047592 46.93411564 41.28841378 50 48 C50.35320312 48.76957031 50.70640625 49.53914063 51.0703125 50.33203125 C53.89457884 57.50237735 53.72925857 65.39123213 54 73 C54.99 73 55.98 73 57 73 C56.67 75.31 56.34 77.62 56 80 C53.50935112 80.68707555 51.62113708 81 49 81 C49 80.34 49 79.68 49 79 C46.36 78.67 43.72 78.34 41 78 C43.91765 76.0549 45.62537285 75.54723683 49 75 C49 74.01 49 73.02 49 72 C49.99 72 50.98 72 52 72 C50.69205963 51.9271193 41.8669917 31.96081316 27 18 C18.65969032 10.76406236 10.05621701 5.55318971 0 1 C0 0.67 0 0.34 0 0 Z " fill="#E3B414" transform="translate(125,17)"/>
<path d="M0 0 C3.625 0.375 3.625 0.375 7 1 C8 4 8 4 7.1796875 6.0078125 C3.62375302 11.77822115 3.62375302 11.77822115 0.1875 13 C-0.534375 13 -1.25625 13 -2 13 C-2 13.99 -2 14.98 -2 16 C2.48446185 14.62974777 4.42623768 12.90215578 7 9 C8.44368662 6.04317105 9.75300455 3.04452612 11 0 C11.33 0.66 11.66 1.32 12 2 C12.66 2 13.32 2 14 2 C13.67 3.65 13.34 5.3 13 7 C12.34 7 11.68 7 11 7 C10.7525 7.886875 10.505 8.77375 10.25 9.6875 C8.74346596 13.6798152 6.91875337 17.04062332 3 19 C-0.5 19.25 -0.5 19.25 -4 19 C-6.46732283 15.29901576 -6.68194709 12.29464299 -6 8 C-4.25364203 4.85655565 -2.53137274 2.53137274 0 0 Z " fill="#F0F0F2" transform="translate(122,81)"/>
<path d="M0 0 C1.32 0 2.64 0 4 0 C3.67 2.31 3.34 4.62 3 7 C3.66 7.33 4.32 7.66 5 8 C4.38125 8.185625 3.7625 8.37125 3.125 8.5625 C-0.05602866 10.71437233 -0.19451947 13.37533763 -1 17 C0.65 16.01 2.3 15.02 4 14 C3.60000283 16.31998359 3.09432121 17.86323424 1.75 19.8125 C0 21 0 21 -2.625 20.8125 C-5 20 -5 20 -6 18 C-7.98 20.97 -7.98 20.97 -10 24 C-10.99 23.67 -11.98 23.34 -13 23 C-13.37952295 16.80112515 -12.8352113 12.5522888 -10 7 C-8.68 7 -7.36 7 -6 7 C-6.67170806 10.8063457 -7.72746564 14.35206816 -9 18 C-6.05495227 13.16170731 -3.84030886 8.33579468 -1.83203125 3.0390625 C-1 1 -1 1 0 0 Z " fill="#E5D24A" transform="translate(124,43)"/>
<path d="M0 0 C-2.59437563 3.07683847 -5.54743394 4.2581237 -9.1875 5.875 C-23.09826923 12.46392406 -35.12206251 23.4973949 -43.875 36.0625 C-44.926875 37.5165625 -44.926875 37.5165625 -46 39 C-46.66 39 -47.32 39 -48 39 C-48.103125 39.721875 -48.20625 40.44375 -48.3125 41.1875 C-49.06793947 44.27793421 -50.15531315 46.41743841 -52 49 C-52.66 49 -53.32 49 -54 49 C-48.83833267 30.94767657 -30.19792147 13.86192221 -14.71875 4.4765625 C-3.37190083 -1.68595041 -3.37190083 -1.68595041 0 0 Z " fill="#EDB406" transform="translate(63,7)"/>
<path d="M0 0 C0.66 0.33 1.32 0.66 2 1 C1.67 1.66 1.34 2.32 1 3 C2.32 2.67 3.64 2.34 5 2 C5 6.35251187 2.93834489 7.92809398 0 11 C-1.32303717 11.3721042 -2.65737935 11.70630173 -4 12 C-4.680625 12.804375 -5.36125 13.60875 -6.0625 14.4375 C-10.26256182 18.10138372 -14.58380789 18.36447483 -20 19 C-16.73700076 10.83307126 -7.1258606 4.75057374 0 0 Z " fill="#FDE770" transform="translate(45,17)"/>
<path d="M0 0 C-9.49909254 9.49909254 -29.94686865 13.6806218 -42.6875 16.9375 C-43.50017334 17.14890625 -44.31284668 17.3603125 -45.15014648 17.578125 C-50.22739439 18.8126631 -54.77641945 19.19700361 -60 19 C-58 16 -58 16 -56.13427734 15.32739258 C-55.3758252 15.18454834 -54.61737305 15.0417041 -53.8359375 14.89453125 C-52.54055054 14.6322876 -52.54055054 14.6322876 -51.21899414 14.36474609 C-50.28047607 14.18250488 -49.34195801 14.00026367 -48.375 13.8125 C-39.74394088 12.00277339 -31.4174495 9.69772299 -23.0625 6.875 C-22.06331543 6.53831299 -21.06413086 6.20162598 -20.03466797 5.85473633 C-15.95629595 4.45359697 -11.93591874 3.01697574 -7.9921875 1.26953125 C-5.03272513 0.01388468 -3.16959848 -0.28814532 0 0 Z " fill="#131419" transform="translate(141,117)"/>
<path d="M0 0 C-0.3130482 2.9217832 -0.81966891 3.85149204 -3.125 5.75 C-4.548125 6.86375 -4.548125 6.86375 -6 8 C-7.82418719 9.97828519 -9.56470533 12.01382988 -11.3046875 14.06640625 C-13 16 -13 16 -15.625 18.375 C-18.47442467 21.5243641 -19.93487092 24.79797943 -21.73046875 28.6171875 C-23.4034265 31.7572005 -25.3149929 33.69856534 -28 36 C-27.71565021 23.4886093 -17.43938997 13.27132246 -9 5 C-3.61474037 0 -3.61474037 0 0 0 Z " fill="#77787D" transform="translate(56,32)"/>
<path d="M0 0 C0.66 0.33 1.32 0.66 2 1 C2 1.99 2 2.98 2 4 C0.58461283 4.33872513 -0.83237963 4.67074624 -2.25 5 C-3.03890625 5.185625 -3.8278125 5.37125 -4.640625 5.5625 C-7 6 -7 6 -11 6 C-11 6.66 -11 7.32 -11 8 C-10.01 8.33 -9.02 8.66 -8 9 C-11.98196457 10.05404945 -14.98195309 9.84098656 -19 9 C-19 9.33 -19 9.66 -19 10 C-20.12019531 10.06058594 -21.24039063 10.12117187 -22.39453125 10.18359375 C-23.86719984 10.26801424 -25.33985544 10.35266149 -26.8125 10.4375 C-27.55048828 10.47681641 -28.28847656 10.51613281 -29.04882812 10.55664062 C-32.23071342 10.74381035 -34.96162378 10.98720793 -38 12 C-39.65 10.02 -41.3 8.04 -43 6 C-41.98164062 6.03480469 -40.96328125 6.06960937 -39.9140625 6.10546875 C-31.95983598 6.29062742 -24.29639477 5.99511025 -16.4375 4.6875 C-15.71320801 4.56979248 -14.98891602 4.45208496 -14.24267578 4.33081055 C-10.5130328 3.65998984 -7.12501637 2.72756643 -3.59765625 1.33203125 C-2.41042969 0.89246094 -1.22320312 0.45289063 0 0 Z " fill="#D99301" transform="translate(73,159)"/>
<path d="M0 0 C1.3921875 0.2784375 1.3921875 0.2784375 2.8125 0.5625 C3.534375 0.706875 4.25625 0.85125 5 1 C4.08541016 1.29970703 4.08541016 1.29970703 3.15234375 1.60546875 C0.05202948 3.61420231 -0.30292904 5.84597351 -1.4375 9.3125 C-3.2666938 14.44787638 -4.6890228 17.67438902 -9 21 C-7.87204037 16.89100419 -6.66489182 12.92438786 -5 9 C-6.32 9 -7.64 9 -9 9 C-10.57077907 14.02649303 -11.44854729 18.76119922 -12 24 C-12.33 24 -12.66 24 -13 24 C-14.60851164 17.45105976 -13.69821192 13.117617 -11.25 7 C-10.98558105 6.3289624 -10.72116211 5.6579248 -10.44873047 4.96655273 C-9.640625 3.0625 -9.640625 3.0625 -8 0 C-4.62058652 -1.12647116 -3.39092328 -0.80736269 0 0 Z " fill="#40443F" transform="translate(123,41)"/>
<path d="M0 0 C2.5625 0.1875 2.5625 0.1875 4.5625 2.1875 C4.1875 5.8125 4.1875 5.8125 3.5625 9.1875 C2.9025 9.1875 2.2425 9.1875 1.5625 9.1875 C1.2325 7.8675 0.9025 6.5475 0.5625 5.1875 C-1.91535723 8.85041938 -2.92714169 11.7984185 -3.4375 16.1875 C-2.48875 15.548125 -1.54 14.90875 -0.5625 14.25 C2.5625 12.1875 2.5625 12.1875 4.5625 11.1875 C2.47074468 17.14095745 2.47074468 17.14095745 -0.4375 19.1875 C-2.9375 19.625 -2.9375 19.625 -5.4375 19.1875 C-7.3125 17.6875 -7.3125 17.6875 -8.4375 15.1875 C-8.34642983 9.5411497 -6.89726743 0.53055903 0 0 Z " fill="#E8E8EA" transform="translate(74.4375,90.8125)"/>
<path d="M0 0 C1.65 0.33 3.3 0.66 5 1 C4.5625 2.45833333 4.125 3.91666667 3.6875 5.375 C3.41421875 6.28894531 3.1409375 7.20289063 2.859375 8.14453125 C2.31405625 9.95647672 1.76268501 11.76662047 1.203125 13.57421875 C-0.46963198 19.01067893 -1.83259926 24.43239648 -3 30 C-3.99 29.67 -4.98 29.34 -6 29 C-6 27.35 -6 25.7 -6 24 C-6.66 24 -7.32 24 -8 24 C-7.47731534 21.23723823 -6.89130413 18.6739124 -6 16 C-5.34 15.67 -4.68 15.34 -4 15 C-3.11972141 12.29645473 -3.11972141 12.29645473 -2.4375 9.125 C-1.71627053 6.0233396 -1.0072857 3.0218571 0 0 Z " fill="#EDD94C" transform="translate(110,40)"/>
<path d="M0 0 C0.33 0.66 0.66 1.32 1 2 C-1.50601739 9.29363271 -5.52410069 15.7706556 -10 22 C-11.32 21.34 -12.64 20.68 -14 20 C-14.33266291 13.79029227 -13.45029331 9.71735105 -11 4 C-9.35 4.33 -7.7 4.66 -6 5 C-6.165 5.804375 -6.33 6.60875 -6.5 7.4375 C-7.03191839 9.7284443 -7.03191839 9.7284443 -7 11 C-4.69 7.37 -2.38 3.74 0 0 Z " fill="#EBEBEC" transform="translate(67,91)"/>
<path d="M0 0 C-14.59477971 5.92326147 -29.13350461 10.76502982 -44.5 14.25 C-45.21736328 14.41330811 -45.93472656 14.57661621 -46.67382812 14.74487305 C-55.82745382 16.73529884 -64.70867784 17.13921905 -74.0625 17.0625 C-75.11888672 17.05798828 -76.17527344 17.05347656 -77.26367188 17.04882812 C-79.84250908 17.03715918 -82.42122294 17.02078885 -85 17 C-85 16.67 -85 16.34 -85 16 C-84.28158936 15.96036133 -83.56317871 15.92072266 -82.82299805 15.87988281 C-67.87200103 15.01661446 -53.52534545 13.67694431 -39 10 C-37.40365663 9.61323669 -35.80730226 9.22651877 -34.2109375 8.83984375 C-25.39100445 6.64996311 -16.82354184 4.06659374 -8.34130859 0.79150391 C-3.31050519 -1.10350173 -3.31050519 -1.10350173 0 0 Z " fill="#676971" transform="translate(136,118)"/>
<path d="M0 0 C1.23073242 -0.00580078 1.23073242 -0.00580078 2.48632812 -0.01171875 C7.2837763 -0.00406121 11.83194388 0.32277918 16.5625 1.125 C13.87275316 3.81474684 12.28695848 3.48238565 8.5234375 3.6875 C7.30269531 3.76226562 6.08195312 3.83703125 4.82421875 3.9140625 C3.54160156 3.98367188 2.25898437 4.05328125 0.9375 4.125 C-6.76709334 4.55084242 -14.00707359 4.98941426 -21.4375 7.125 C-24.4375 7.25 -24.4375 7.25 -26.4375 7.125 C-26.1075 6.135 -25.7775 5.145 -25.4375 4.125 C-23.36328125 3.2109375 -23.36328125 3.2109375 -20.75 2.5 C-19.47576172 2.14035156 -19.47576172 2.14035156 -18.17578125 1.7734375 C-12.03617784 0.31955139 -6.28043245 -0.02946254 0 0 Z " fill="#14110A" transform="translate(98.4375,8.875)"/>
<path d="M0 0 C0.66 0 1.32 0 2 0 C4.87082996 5.74165991 2.6347195 15.84863496 0.88671875 21.7734375 C-0.32445441 24.89604912 -1.61885338 27.94943005 -3 31 C-3.67409519 32.66367602 -4.34335043 34.32936133 -5 36 C-6.32 35.67 -7.64 35.34 -9 35 C-8.14367342 32.28829917 -7.2911011 29.62060276 -6.08203125 27.04296875 C-2.15774671 18.4576566 -1.25627624 9.26979586 0 0 Z " fill="#2A1D01" transform="translate(180,99)"/>
<path d="M0 0 C0.33 0 0.66 0 1 0 C1.66 2.97 2.32 5.94 3 9 C3.66 9 4.32 9 5 9 C5.33 7.68 5.66 6.36 6 5 C8.1519437 8.22791555 8.20086443 9.28400809 8 13 C9.65 13.33 11.3 13.66 13 14 C12.01 14.495 12.01 14.495 11 15 C10.34786708 17.02463255 10.34786708 17.02463255 10 19 C9.67 18.34 9.34 17.68 9 17 C6.47266765 16.34444881 6.47266765 16.34444881 4 16 C4.33 17.65 4.66 19.3 5 21 C4.01 20.67 3.02 20.34 2 20 C2.0928125 21.5778125 2.0928125 21.5778125 2.1875 23.1875 C2.22052363 29.29687123 0.50603532 35.11929067 -1 41 C-1.99290126 38.02129623 -2.05524548 36.40817115 -1.87890625 33.33203125 C-1.83056641 32.43935547 -1.78222656 31.54667969 -1.73242188 30.62695312 C-1.67634766 29.69818359 -1.62027344 28.76941406 -1.5625 27.8125 C-1.51029297 26.87212891 -1.45808594 25.93175781 -1.40429688 24.96289062 C-1.27468082 22.64158499 -1.13971819 20.32071591 -1 18 C-0.01 18 0.98 18 2 18 C2.66 15.69 3.32 13.38 4 11 C3.01 11 2.02 11 1 11 C-0.28317892 7.15046324 -0.06643637 4.05261865 0 0 Z " fill="#E7AD0A" transform="translate(178,79)"/>
<path d="M0 0 C3.3 0.33 6.6 0.66 10 1 C9.5020163 4.73487777 9.12508244 6.81237635 7 10 C7 10.99 7 11.98 7 13 C8.32 12.01 9.64 11.02 11 10 C10.45276317 13.37462715 9.9451 15.08235 8 18 C5.0625 17.625 5.0625 17.625 2 17 C0.60542306 14.21084611 0.8178078 12.09726736 1 9 C2 6.125 2 6.125 3 4 C2.34 4 1.68 4 1 4 C0.67 2.68 0.34 1.36 0 0 Z " fill="#EAEAEC" transform="translate(133,79)"/>
<path d="M0 0 C1.00305176 0.16226074 2.00610352 0.32452148 3.03955078 0.49169922 C6.86770876 0.98302118 10.51029935 1.12932301 14.3671875 1.1328125 C15.04621124 1.13376923 15.72523499 1.13472595 16.42483521 1.13571167 C17.85174656 1.13638761 19.27866109 1.13457453 20.70556641 1.13037109 C22.86237679 1.12503125 25.01897737 1.13032749 27.17578125 1.13671875 C34.18059223 1.13975192 41.05008999 0.97951752 48 0 C48.66 0.99 49.32 1.98 50 3 C42.74506059 4.73059082 35.8256803 5.38463242 28.375 5.375 C27.33408203 5.37628906 26.29316406 5.37757813 25.22070312 5.37890625 C16.3598441 5.25864783 8.38998969 3.76376131 0 1 C0 0.67 0 0.34 0 0 Z " fill="#E5B514" transform="translate(29,152)"/>
<path d="M0 0 C0.66 0.33 1.32 0.66 2 1 C-5.24640419 5.61779666 -12.6800307 9.28619309 -20.5625 12.6875 C-21.63435547 13.15994141 -22.70621094 13.63238281 -23.81054688 14.11914062 C-40.64524135 21.46050892 -40.64524135 21.46050892 -48.5625 21.1875 C-50.11130859 21.14689453 -50.11130859 21.14689453 -51.69140625 21.10546875 C-52.83416016 21.05326172 -52.83416016 21.05326172 -54 21 C-50.7104802 18.8069868 -48.20465799 18.18486298 -44.375 17.25 C-30.94455346 13.80082087 -18.48036022 9.07000828 -6.1953125 2.63671875 C-3 1 -3 1 0 0 Z " fill="#DCA016" transform="translate(147,114)"/>
<path d="M0 0 C0.66 0 1.32 0 2 0 C7.52654919 11.30224608 11.49272542 22.34349913 12 35 C10.515 35.495 10.515 35.495 9 36 C8.76925781 34.85144531 8.53851563 33.70289063 8.30078125 32.51953125 C6.50583654 23.87430091 4.45897572 15.76856721 1.05078125 7.6015625 C0.15655455 5.38760346 -0.59734026 3.35153289 -1 1 C-0.67 0.67 -0.34 0.34 0 0 Z " fill="#1C1601" transform="translate(171,53)"/>
<path d="M0 0 C1.0957185 3.32598017 0.85057904 5.50835399 0.0703125 8.89453125 C-1.24112759 15.52116086 -1.22329866 21.9540417 -1.125 28.6875 C-1.11146484 30.47317383 -1.11146484 30.47317383 -1.09765625 32.29492188 C-1.07434772 35.19683367 -1.04163123 38.09830317 -1 41 C-1.66 41 -2.32 41 -3 41 C-4.73425401 34.97867007 -5.38521578 29.50746866 -5.375 23.25 C-5.37556396 22.37690186 -5.37612793 21.50380371 -5.37670898 20.60424805 C-5.26684792 14.11404037 -4.89301452 4.89301452 0 0 Z " fill="#171404" transform="translate(19,69)"/>
<path d="M0 0 C0.33 1.32 0.66 2.64 1 4 C0.01 4.33 -0.98 4.66 -2 5 C-2.03738281 5.60328125 -2.07476562 6.2065625 -2.11328125 6.828125 C-2.76625659 14.76625659 -2.76625659 14.76625659 -6 18 C-9.875 17.125 -9.875 17.125 -11 16 C-11.41164505 11.80122052 -11.21508767 9.43017533 -9.3125 5.625 C-7 3 -7 3 -4.375 2.0625 C-2 2 -2 2 0 3 C0 2.01 0 1.02 0 0 Z " fill="#EAD64D" transform="translate(106,51)"/>
<path d="M0 0 C0.66 0.33 1.32 0.66 2 1 C2 1.99 2 2.98 2 4 C-20.79395731 17.1528157 -20.79395731 17.1528157 -28.9609375 15.63574219 C-30.66033591 15.15544033 -32.33370133 14.58488766 -34 14 C-34 13.67 -34 13.34 -34 13 C-32.31197266 12.70609375 -32.31197266 12.70609375 -30.58984375 12.40625 C-20.30737834 10.45824216 -7.72987113 7.72987113 0 0 Z " fill="#DEDEDC" transform="translate(142,163)"/>
<path d="M0 0 C-4.79848145 2.59194663 -9.93661789 3.70263072 -15.1875 5.0625 C-16.69280273 5.4656543 -16.69280273 5.4656543 -18.22851562 5.87695312 C-27.00760765 8.16739939 -35.38119256 9.17889952 -44.4375 9.1875 C-45.14326172 9.19974609 -45.84902344 9.21199219 -46.57617188 9.22460938 C-48.38565673 9.22979415 -50.19470228 9.12313591 -52 9 C-52.66 8.34 -53.32 7.68 -54 7 C-53.10244995 6.97812622 -53.10244995 6.97812622 -52.18676758 6.95581055 C-40.7850294 6.64593905 -29.99507776 6.25159312 -19 3 C-18.29875 2.81179687 -17.5975 2.62359375 -16.875 2.4296875 C-14.16005767 1.69244023 -11.56176803 0.83007332 -8.9375 -0.1875 C-5.57239158 -1.11827467 -3.36510584 -0.80121568 0 0 Z " fill="#FCCB0E" transform="translate(103,135)"/>
<path d="M0 0 C2 2 2 2 2.1953125 3.85668945 C2.17210937 4.60136475 2.14890625 5.34604004 2.125 6.11328125 C2.10816162 6.94351807 2.09132324 7.77375488 2.07397461 8.62915039 C2.04956299 9.51465576 2.02515137 10.40016113 2 11.3125 C1.86378849 20.41420195 2.09123247 29.27369741 5 38 C3.5625 40.1875 3.5625 40.1875 2 42 C-0.91142969 28.62128739 -3.40817384 13.52275428 0 0 Z " fill="#F4B602" transform="translate(1,80)"/>
<path d="M0 0 C2.39862283 3.59793424 1.86477804 5.12551789 1.29736328 9.24951172 C0.71172663 14.66641038 0.89834949 20.12057972 0.9375 25.5625 C0.94201172 26.76197266 0.94652344 27.96144531 0.95117188 29.19726562 C0.96286231 32.13156359 0.97924862 35.06575449 1 38 C0.34 38 -0.32 38 -1 38 C-2.55134559 32.48067087 -3.35515318 27.53802275 -3.3125 21.8125 C-3.31121094 21.08361572 -3.30992188 20.35473145 -3.30859375 19.60375977 C-3.18959365 12.79026042 -1.91317257 6.54806089 0 0 Z " fill="#CECDCD" transform="translate(20,71)"/>
<path d="M0 0 C5.34949644 0.50364216 9.15546044 1.83864881 13.875 4.375 C19.1441306 7.14196259 24.2847428 9.32483841 30 11 C29.67 11.66 29.34 12.32 29 13 C22.17524754 13.25693186 17.0243513 11.35837435 11.125 8.1875 C10.48296631 7.84396484 9.84093262 7.50042969 9.17944336 7.14648438 C5.61048507 5.1480552 2.72808088 3.05024119 0 0 Z " fill="#18140C" transform="translate(53,167)"/>
<path d="M0 0 C0.33 0 0.66 0 1 0 C1.33 3.96 1.66 7.92 2 12 C2.99 12 3.98 12 5 12 C4.67 14.31 4.34 16.62 4 19 C1.50935112 19.68707555 -0.37886292 20 -3 20 C-3 19.34 -3 18.68 -3 18 C-5.64 17.67 -8.28 17.34 -11 17 C-8.08235 15.0549 -6.37462715 14.54723683 -3 14 C-3 13.01 -3 12.02 -3 11 C-2.01 11 -1.02 11 0 11 C0 7.37 0 3.74 0 0 Z " fill="#FAD039" transform="translate(177,78)"/>
<path d="M0 0 C1.65 0.33 3.3 0.66 5 1 C4.46884894 5.51478398 2.63379708 8.34666857 0 12 C0.66 12 1.32 12 2 12 C2.33 11.34 2.66 10.68 3 10 C2.45276317 13.37462715 1.9451 15.08235 0 18 C-1.32 18 -2.64 18 -4 18 C-4.51137226 11.09647445 -2.86964374 6.25172386 0 0 Z " fill="#EFEFF0" transform="translate(84,89)"/>
<path d="M0 0 C4.10620171 0.22812232 7.47179766 1.29293683 11.3125 2.6875 C11.99634766 2.92597656 12.68019531 3.16445312 13.38476562 3.41015625 C15.05158097 3.99295882 16.71380316 4.58887051 18.375 5.1875 C17.385 6.1775 16.395 7.1675 15.375 8.1875 C13.58263933 7.71093588 11.79113103 7.23116502 10 6.75 C9.00226563 6.48316406 8.00453125 6.21632813 6.9765625 5.94140625 C4.375 5.1875 4.375 5.1875 2.375 4.1875 C0.49159623 3.96561206 -1.39805191 3.79560213 -3.2890625 3.65234375 C-4.41054687 3.56533203 -5.53203125 3.47832031 -6.6875 3.38867188 C-7.863125 3.30166016 -9.03875 3.21464844 -10.25 3.125 C-11.43335937 3.03412109 -12.61671875 2.94324219 -13.8359375 2.84960938 C-16.76536185 2.62517767 -19.69502763 2.40464035 -22.625 2.1875 C-22.625 1.8575 -22.625 1.5275 -22.625 1.1875 C-19.6042807 1.01850871 -16.58345177 0.85223871 -13.5625 0.6875 C-12.71494141 0.63980469 -11.86738281 0.59210937 -10.99414062 0.54296875 C-7.33021632 0.34491879 -3.66439337 0.18953759 0 0 Z " fill="#2F280E" transform="translate(116.625,10.8125)"/>
<path d="M0 0 C0.66 0.33 1.32 0.66 2 1 C2 1.33 2 1.66 2 2 C3.98 1.67 5.96 1.34 8 1 C4.60632322 5.15171455 1.29709642 8.75097588 -3 12 C-4.17219042 12.99351936 -5.33848412 13.99402188 -6.5 15 C-9.28321307 17.39953162 -12.11303631 19.72542255 -15 22 C-13.58862407 18.85424668 -11.87599513 16.54733227 -9.5625 14 C-5.66501868 9.69004226 -3.09156121 6.76968071 -2 1 C-1.34 0.67 -0.68 0.34 0 0 Z " fill="#50525B" transform="translate(58,29)"/>
<path d="M0 0 C0.99 0.33 1.98 0.66 3 1 C2.34 1.639375 1.68 2.27875 1 2.9375 C-0.00055755 3.95778686 -1.000479 4.97869767 -2 6 C-2.60457031 6.58523437 -3.20914063 7.17046875 -3.83203125 7.7734375 C-10.89253946 15.04283648 -15.80035061 24.40105182 -19 34 C-19.99 34 -20.98 34 -22 34 C-18.28468634 20.50754513 -9.77496936 9.77496936 0 0 Z " fill="#252528" transform="translate(46,35)"/>
<path d="M0 0 C8.43828013 0.58871722 16.55920161 4.10761155 24 8 C23.67 8.33 23.34 8.66 23 9 C23.99 9.66 24.98 10.32 26 11 C20.70909119 10.43189466 16.23184759 9.18800159 11.3125 7.1875 C10.33700195 6.8152832 10.33700195 6.8152832 9.34179688 6.43554688 C5.43486545 4.87038475 2.74208712 3.20025863 0 0 Z " fill="#D1D1D1" transform="translate(61,168)"/>
<path d="M0 0 C0.99 0.99 1.98 1.98 3 3 C2.67386719 3.54527344 2.34773438 4.09054688 2.01171875 4.65234375 C-1.0591876 9.95169541 -3.29053656 15.12111354 -5 21 C-5.66 20.67 -6.32 20.34 -7 20 C-7.66 21.98 -8.32 23.96 -9 26 C-10.9142832 20.60747674 -8.17041402 15.98106815 -6 11 C-4.10676309 7.26880318 -2.09976779 3.61859982 0 0 Z " fill="#16150D" transform="translate(26,50)"/>
<path d="M0 0 C0.6875 1.75 0.6875 1.75 1 4 C0.05377841 5.37202131 -0.95884159 6.69855198 -2 8 C-2.70731848 9.70399452 -3.41398038 11.40829222 -4.109375 13.1171875 C-5.6640458 16.40381612 -7.77546884 19.13152561 -10 22 C-10.33 22 -10.66 22 -11 22 C-10.82307573 14.21533216 -6.51075485 6.78081291 -1.2734375 1.140625 C-0.85320313 0.76421875 -0.43296875 0.3878125 0 0 Z " fill="#BBBBBC" transform="translate(39,46)"/>
<path d="M0 0 C1.32 0 2.64 0 4 0 C3.34 3.3 2.68 6.6 2 10 C2.66 9.67 3.32 9.34 4 9 C3.34 10.65 2.68 12.3 2 14 C-0.02045442 13.39816251 -2.02111039 12.72693904 -4 12 C-4.33 11.34 -4.66 10.68 -5 10 C-4.00390625 7.6171875 -4.00390625 7.6171875 -2.5625 4.875 C-1.85287109 3.50988281 -1.85287109 3.50988281 -1.12890625 2.1171875 C-0.75636719 1.41851562 -0.38382812 0.71984375 0 0 Z " fill="#E2D04A" transform="translate(91,55)"/>
<path d="M0 0 C0.66 0.33 1.32 0.66 2 1 C-2.58327457 5.95713685 -7.47540811 10.321487 -12.8125 14.4375 C-13.37541748 14.87433105 -13.93833496 15.31116211 -14.51831055 15.76123047 C-17.00634661 17.65050932 -19.0133085 19.00443617 -22 20 C-21.505 18.515 -21.505 18.515 -21 17 C-20.195625 16.71125 -19.39125 16.4225 -18.5625 16.125 C-17.2940625 15.568125 -17.2940625 15.568125 -16 15 C-15.64615234 13.89205078 -15.64615234 13.89205078 -15.28515625 12.76171875 C-13.42906314 8.77309312 -10.46451821 7.08643544 -6.875 4.6875 C-5.88693359 4.0059082 -5.88693359 4.0059082 -4.87890625 3.31054688 C-3.26005936 2.19612329 -1.63100005 1.09656009 0 0 Z " fill="#E9B81A" transform="translate(163,109)"/>
<path d="M0 0 C6.93 0.33 13.86 0.66 21 1 C21 1.99 21 2.98 21 4 C20.09636719 4.06058594 19.19273438 4.12117187 18.26171875 4.18359375 C17.08222656 4.26738281 15.90273438 4.35117188 14.6875 4.4375 C12.92986328 4.55931641 12.92986328 4.55931641 11.13671875 4.68359375 C7.97409042 4.8867371 7.97409042 4.8867371 5 6 C3.35 4.02 1.7 2.04 0 0 Z " fill="#D59801" transform="translate(30,165)"/>
<path d="M0 0 C0.33 0.66 0.66 1.32 1 2 C1.99 2.33 2.98 2.66 4 3 C3.2575 3.61875 2.515 4.2375 1.75 4.875 C-1.93580274 8.49779756 -3.33513984 13.21003921 -5 18 C-5.99 18 -6.98 18 -8 18 C-7.45212815 13.39787644 -6.05813874 10.11627747 -4 6 C-4 4.68 -4 3.36 -4 2 C-2.68 1.34 -1.36 0.68 0 0 Z " fill="#EBD749" transform="translate(69,61)"/>
<path d="M0 0 C-0.33 0.66 -0.66 1.32 -1 2 C-3.1281813 2.23646459 -5.25751214 2.46552654 -7.390625 2.65234375 C-10.96994318 3.12922896 -14.26443476 4.20858127 -17.69921875 5.29296875 C-20.46816405 6.14386705 -23.1071853 6.7830389 -26 7 C-26.66 6.34 -27.32 5.68 -28 5 C-25.81426438 4.34822031 -23.6263177 3.70385326 -21.4375 3.0625 C-20.21933594 2.70285156 -19.00117187 2.34320313 -17.74609375 1.97265625 C-11.77069372 0.42117074 -6.16354532 -0.12578664 0 0 Z " fill="#DAA701" transform="translate(91,0)"/>
<path d="M0 0 C0 3.85745525 -1.05338452 4.40811194 -3.6875 7.125 C-6.56694373 10.22749923 -8.76534369 13.10461647 -10.6875 16.875 C-12.54456041 20.49437284 -14.14455104 22.34766473 -18 24 C-16.79063508 18.39294448 -15.3896227 15.90188684 -11 12 C-7.06275958 8.18635009 -3.31778605 4.37947758 0 0 Z " fill="#6A6B71" transform="translate(52,37)"/>
<path d="M0 0 C0.33 0 0.66 0 1 0 C1 1.65 1 3.3 1 5 C1.66 5 2.32 5 3 5 C3.33 4.34 3.66 3.68 4 3 C4.33 5.31 4.66 7.62 5 10 C4.34 9.67 3.68 9.34 3 9 C2.01 9.66 1.02 10.32 0 11 C-2.1875 11.625 -2.1875 11.625 -4 12 C-4.50265724 6.72209903 -3.25108731 4.13774748 0 0 Z " fill="#363A47" transform="translate(75,95)"/>
<path d="M0 0 C0.33 0.99 0.66 1.98 1 3 C-0.76776959 4.79478135 -2.53902559 6.5858707 -4.3125 8.375 C-5.06176758 9.13683594 -5.06176758 9.13683594 -5.82617188 9.9140625 C-8.12542387 12.22854133 -10.27521225 14.18347483 -13 16 C-13.99 15.67 -14.98 15.34 -16 15 C-13.12999596 11.15514898 -10.0624814 8.23396384 -6.3125 5.25 C-5.33925781 4.47140625 -4.36601562 3.6928125 -3.36328125 2.890625 C-2.58339844 2.26671875 -1.80351562 1.6428125 -1 1 C-0.67 0.67 -0.34 0.34 0 0 Z " fill="#F3F1EC" transform="translate(158,150)"/>
<path d="M0 0 C1.32 0.33 2.64 0.66 4 1 C2.68 1.99 1.36 2.98 0 4 C0.33 4.66 0.66 5.32 1 6 C0.22265625 8.3828125 0.22265625 8.3828125 -0.9375 11.125 C-1.31777344 12.03507812 -1.69804688 12.94515625 -2.08984375 13.8828125 C-2.54037109 14.93082031 -2.54037109 14.93082031 -3 16 C-3.99 16 -4.98 16 -6 16 C-6.97786497 12.35571635 -7.33117342 10.64068973 -5.56640625 7.2265625 C-4.90511719 6.36804687 -4.24382812 5.50953125 -3.5625 4.625 C-2.90378906 3.75101563 -2.24507813 2.87703125 -1.56640625 1.9765625 C-1.04949219 1.32429688 -0.53257813 0.67203125 0 0 Z " fill="#CDBE49" transform="translate(77,46)"/>
<path d="M0 0 C0.33 0 0.66 0 1 0 C1 1.65 1 3.3 1 5 C2.32 4.67 3.64 4.34 5 4 C4.57847656 4.37769531 4.15695313 4.75539063 3.72265625 5.14453125 C-1.41655355 10.30792556 -1.97419958 14.86618426 -2 22 C-2.66 22 -3.32 22 -4 22 C-5.49084832 17.52745503 -5.49084832 13.47254497 -4 9 C-2 7 -2 7 0 6 C0 4.02 0 2.04 0 0 Z " fill="#F6B602" transform="translate(18,104)"/>
<path d="M0 0 C0.66 0.33 1.32 0.66 2 1 C1.484375 1.4125 0.96875 1.825 0.4375 2.25 C-0.036875 2.8275 -0.51125 3.405 -1 4 C-0.8246875 4.5878125 -0.649375 5.175625 -0.46875 5.78125 C0.17107992 8.80977829 -0.71750221 10.44030812 -1.9375 13.25 C-2.31777344 14.14203125 -2.69804688 15.0340625 -3.08984375 15.953125 C-3.39019531 16.62859375 -3.69054688 17.3040625 -4 18 C-4.99 18 -5.98 18 -7 18 C-6.21302675 14.58978257 -5.12880057 11.31114834 -4 8 C-4.66 7.67 -5.32 7.34 -6 7 C-4.02 4.69 -2.04 2.38 0 0 Z " fill="#D2D2D5" transform="translate(51,83)"/>
<path d="M0 0 C-0.57344937 2.86724686 -0.8614515 3.8614515 -3 6 C-3.99 5.67 -4.98 5.34 -6 5 C-8.22574335 4.77548542 -10.45581519 4.59217122 -12.6875 4.4375 C-14.45673828 4.31181641 -14.45673828 4.31181641 -16.26171875 4.18359375 C-17.16535156 4.12300781 -18.06898437 4.06242188 -19 4 C-18.67 3.34 -18.34 2.68 -18 2 C-16.00773831 1.71080072 -14.01277818 1.42735449 -12.0078125 1.24609375 C-1.59563976 -0.03010641 -1.59563976 -0.03010641 0 0 Z " fill="#FDD722" transform="translate(81,4)"/>
<path d="M0 0 C0.66 0.33 1.32 0.66 2 1 C2 1.99 2 2.98 2 4 C-0.0978523 5.20005531 -2.2020249 6.38502983 -4.3125 7.5625 C-4.90740234 7.90474609 -5.50230469 8.24699219 -6.11523438 8.59960938 C-7.70282559 9.47766262 -9.34993931 10.24586268 -11 11 C-11.99 10.67 -12.98 10.34 -14 10 C-11.19533807 7.00618646 -8.38815731 4.8006379 -4.875 2.6875 C-4.00617188 2.15511719 -3.13734375 1.62273437 -2.2421875 1.07421875 C-1.50226563 0.71972656 -0.76234375 0.36523438 0 0 Z " fill="#EBEAE6" transform="translate(142,163)"/>
<path d="M0 0 C0.33 0.99 0.66 1.98 1 3 C0.0925 3.556875 -0.815 4.11375 -1.75 4.6875 C-5.03239932 6.79002578 -5.03239932 6.79002578 -7 9.5625 C-9.37630311 12.45861941 -11.66069106 13.36442011 -15 15 C-17.81356892 17.56197123 -17.81356892 17.56197123 -20 20 C-20.99 19.67 -21.98 19.34 -23 19 C-22.29746094 18.44183594 -21.59492188 17.88367188 -20.87109375 17.30859375 C-17.90699446 14.92521595 -14.98161431 12.50073061 -12.0625 10.0625 C-11.06347656 9.22847656 -10.06445312 8.39445312 -9.03515625 7.53515625 C-8.03355469 6.69855469 -7.03195313 5.86195312 -6 5 C-4.00041952 3.33282914 -2.00024483 1.66637386 0 0 Z " fill="#15100B" transform="translate(161,113)"/>
<path d="M0 0 C0 1.98 0 3.96 0 6 C-0.66 4.68 -1.32 3.36 -2 2 C-2.44730469 2.48210937 -2.89460937 2.96421875 -3.35546875 3.4609375 C-9.78742077 10.18088737 -9.78742077 10.18088737 -14 11 C-14.99 10.34 -15.98 9.68 -17 9 C-14.73437454 7.49157829 -12.46313837 5.99317749 -10.1875 4.5 C-9.54490234 4.07074219 -8.90230469 3.64148438 -8.24023438 3.19921875 C-3.33984375 0 -3.33984375 0 0 0 Z " fill="#EADFBE" transform="translate(177,98)"/>
<path d="M0 0 C-0.33 0.33 -0.66 0.66 -1 1 C-0.34 1.66 0.32 2.32 1 3 C-0.76949612 3.50471197 -2.54065223 4.00360685 -4.3125 4.5 C-5.79169922 4.91765625 -5.79169922 4.91765625 -7.30078125 5.34375 C-10 6 -10 6 -13 6 C-13 5.34 -13 4.68 -13 4 C-14.32 3.67 -15.64 3.34 -17 3 C-14.54383175 2.30378686 -12.0855877 1.61775372 -9.625 0.9375 C-8.57699219 0.63875977 -8.57699219 0.63875977 -7.5078125 0.33398438 C-2.2265625 -1.11328125 -2.2265625 -1.11328125 0 0 Z " fill="#231F15" transform="translate(128,176)"/>
<path d="M0 0 C4.01072167 1.55105712 6.02984378 4.12970639 8.6875 7.4375 C9.47511719 8.40558594 10.26273438 9.37367187 11.07421875 10.37109375 C13 13 13 13 14 16 C13.01 16 12.02 16 11 16 C9.31640625 14.171875 9.31640625 14.171875 7.5625 11.75 C5.73450699 9.24724447 4.0293098 7.02781598 1.77734375 4.890625 C0 3 0 3 0 0 Z " fill="#F3F0E7" transform="translate(150,34)"/>
<path d="M0 0 C0.33 0.99 0.66 1.98 1 3 C-2.96 6.96 -6.92 10.92 -11 15 C-11.99 14.67 -12.98 14.34 -14 14 C-13.401875 13.443125 -12.80375 12.88625 -12.1875 12.3125 C-9.92304685 10.10695478 -9.92304685 10.10695478 -8.5625 7.4375 C-6.73034059 4.57933132 -4.95562149 3.59148849 -2 2 C-1.34 1.34 -0.68 0.68 0 0 Z " fill="#130F06" transform="translate(162,151)"/>
<path d="M0 0 C9.95581266 1.56240856 18.48455845 7.58530494 26 14 C25.67 14.99 25.34 15.98 25 17 C24.53851563 16.56429687 24.07703125 16.12859375 23.6015625 15.6796875 C16.54714078 9.23869375 8.89236599 4.47962148 0 1 C0 0.67 0 0.34 0 0 Z " fill="#E5BA24" transform="translate(125,17)"/>
<path d="M0 0 C1.65 0 3.3 0 5 0 C5 1.32 5 2.64 5 4 C4.01 4.33 3.02 4.66 2 5 C2.02320313 5.89203125 2.04640625 6.7840625 2.0703125 7.703125 C2.08835938 8.87359375 2.10640625 10.0440625 2.125 11.25 C2.14820313 12.41015625 2.17140625 13.5703125 2.1953125 14.765625 C2 18 2 18 0 22 C0 14.74 0 7.48 0 0 Z " fill="#D09201" transform="translate(182,95)"/>
<path d="M0 0 C0.99 0.33 1.98 0.66 3 1 C3.39363688 8.74152536 1.94210433 15.52058632 0 23 C-0.99290126 20.02129623 -1.05524548 18.40817115 -0.87890625 15.33203125 C-0.83056641 14.43935547 -0.78222656 13.54667969 -0.73242188 12.62695312 C-0.67634766 11.69818359 -0.62027344 10.76941406 -0.5625 9.8125 C-0.51029297 8.87212891 -0.45808594 7.93175781 -0.40429688 6.96289062 C-0.27468082 4.64158499 -0.13971819 2.32071591 0 0 Z " fill="#E3B12F" transform="translate(177,97)"/>
<path d="M0 0 C1.13116179 3.39348537 0.96678184 4.61626354 0 8 C-1.5625 10.8125 -1.5625 10.8125 -3 13 C-4.32 12.67 -5.64 12.34 -7 12 C-7 11.01 -7 10.02 -7 9 C-6.34 9 -5.68 9 -5 9 C-4.731875 8.071875 -4.46375 7.14375 -4.1875 6.1875 C-3.08851629 3.23759634 -2.37581439 1.94384814 0 0 Z " fill="#E0CE49" transform="translate(103,56)"/>
<path d="M0 0 C0.33 0.66 0.66 1.32 1 2 C1.99 2.33 2.98 2.66 4 3 C3.1028125 3.2784375 3.1028125 3.2784375 2.1875 3.5625 C-0.99449662 5.65352635 -1.96337239 8.47410215 -3 12 C-3.48597997 14.67756272 -3.76170064 17.28338728 -4 20 C-4.33 20 -4.66 20 -5 20 C-6.64556252 12.15193261 -5.21304718 7.76234324 -1 1 C-0.67 0.67 -0.34 0.34 0 0 Z " fill="#272E3E" transform="translate(115,45)"/>
<path d="M0 0 C0.77734375 1.640625 0.77734375 1.640625 1 4 C-0.87109375 6.796875 -0.87109375 6.796875 -3.4375 9.75 C-4.28183594 10.73484375 -5.12617188 11.7196875 -5.99609375 12.734375 C-6.65738281 13.48203125 -7.31867187 14.2296875 -8 15 C-8.99 14.67 -9.98 14.34 -11 14 C-11 12.02 -11 10.04 -11 8 C-10.34 9.32 -9.68 10.64 -9 12 C-6.81846673 10.13011434 -5.80741164 8.61482328 -4.5 6 C-3.19258836 3.38517672 -2.18153327 1.86988566 0 0 Z " fill="#3D404B" transform="translate(36,64)"/>
<path d="M0 0 C-3.22011269 1.77608134 -6.37505157 2.73551098 -9.9375 3.625 C-10.95714844 3.88539063 -11.97679688 4.14578125 -13.02734375 4.4140625 C-15.78167479 4.95696612 -18.20392763 5.1132847 -21 5 C-19.019638 2.3206867 -17.99878278 1.99979713 -14.625 1.4375 C-13.42875 1.293125 -12.2325 1.14875 -11 1 C-10.154375 0.62875 -9.30875 0.2575 -8.4375 -0.125 C-5.31019224 -1.2476233 -3.19018208 -0.74190281 0 0 Z " fill="#F9B609" transform="translate(103,135)"/>
<path d="M0 0 C-2.53758045 3.80637067 -3.55983872 4.00479144 -8 5 C-12.00617078 5.15840726 -15.99312408 5.11670512 -20 5 C-16.6109639 2.7406426 -13.32015989 1.82999933 -9.4375 0.8125 C-8.75236328 0.62236328 -8.06722656 0.43222656 -7.36132812 0.23632812 C-2.24740751 -1.12370376 -2.24740751 -1.12370376 0 0 Z " fill="#D99A06" transform="translate(113,130)"/>
<path d="M0 0 C0.33 0.66 0.66 1.32 1 2 C0.109375 4.4609375 0.109375 4.4609375 -1.25 7.375 C-1.68828125 8.33148438 -2.1265625 9.28796875 -2.578125 10.2734375 C-3.86736485 12.74566117 -5.25497502 14.83411606 -7 17 C-7 16.34 -7 15.68 -7 15 C-7.99 15.33 -8.98 15.66 -10 16 C-10 14 -10 14 -8.203125 12.203125 C-7.47609375 11.47609375 -6.7490625 10.7490625 -6 10 C-4.86554187 8.282701 -3.78122359 6.53120438 -2.75 4.75 C-2.22921875 3.85796875 -1.7084375 2.9659375 -1.171875 2.046875 C-0.59179688 1.03367187 -0.59179688 1.03367187 0 0 Z " fill="#D7D6D9" transform="translate(67,91)"/>
<path d="M0 0 C0.33 0.66 0.66 1.32 1 2 C3.02463255 2.65213292 3.02463255 2.65213292 5 3 C4.01 3.33 3.02 3.66 2 4 C0.18822569 8.2274734 -0.45438289 12.45319073 -1 17 C-1.99 17.33 -2.98 17.66 -4 18 C-3.41632611 11.69632197 -1.95928381 6.01339937 0 0 Z " fill="#484A39" transform="translate(81,53)"/>
<path d="M0 0 C-0.75 4.75 -0.75 4.75 -3 7 C-4.34262065 6.70630173 -5.67696283 6.3721042 -7 6 C-7.99 6.495 -7.99 6.495 -9 7 C-8.1875 4.0625 -8.1875 4.0625 -7 1 C-4 0 -4 0 0 0 Z " fill="#525345" transform="translate(122,40)"/>
<path d="M0 0 C0.66 0.33 1.32 0.66 2 1 C-1.50731269 7.31316284 -5.58062883 10.79031442 -12 14 C-10.41332422 10.09714233 -7.86649519 7.66479018 -4.875 4.75 C-3.96492188 3.85796875 -3.05484375 2.9659375 -2.1171875 2.046875 C-1.41851562 1.37140625 -0.71984375 0.6959375 0 0 Z " fill="#110F06" transform="translate(44,29)"/>
<path d="M0 0 C0 0.66 0 1.32 0 2 C-5.24385089 3.7479503 -9.47322267 4.19392201 -15 4 C-13 1 -13 1 -10.72265625 0.234375 C-9.40587891 -0.00539062 -9.40587891 -0.00539062 -8.0625 -0.25 C-6.74958984 -0.50523437 -6.74958984 -0.50523437 -5.41015625 -0.765625 C-3 -1 -3 -1 0 0 Z " fill="#090A13" transform="translate(96,132)"/>
<path d="M0 0 C0.99 0.33 1.98 0.66 3 1 C2.49202991 5.3177458 1.80317221 9.03302114 0 13 C-1.32 12.67 -2.64 12.34 -4 12 C-2.66666667 8 -1.33333333 4 0 0 Z " fill="#281F05" transform="translate(175,122)"/>
<path d="M0 0 C-2.31160931 2.31160931 -4.39782082 3.22556297 -7.375 4.5625 C-8.80972656 5.21412109 -8.80972656 5.21412109 -10.2734375 5.87890625 C-12.52923607 6.80643374 -14.62129718 7.49833045 -17 8 C-17.33 7.01 -17.66 6.02 -18 5 C-15.94175571 4.15621025 -13.87820214 3.32536378 -11.8125 2.5 C-10.66394531 2.0359375 -9.51539063 1.571875 -8.33203125 1.09375 C-5.28009923 0.09194348 -3.16884928 -0.23870804 0 0 Z " fill="#1E1B18" transform="translate(141,117)"/>
<path d="M0 0 C-0.99 0.33 -1.98 0.66 -3 1 C-3 1.66 -3 2.32 -3 3 C-14.385 2.505 -14.385 2.505 -26 2 C-26 1.67 -26 1.34 -26 1 C-22.9792807 0.83100871 -19.95845177 0.66473871 -16.9375 0.5 C-16.08994141 0.45230469 -15.24238281 0.40460937 -14.36914062 0.35546875 C-9.57055312 0.09608564 -4.80550212 -0.05216285 0 0 Z " fill="#51482C" transform="translate(120,11)"/>
<path d="M0 0 C1.2065625 0.0309375 1.2065625 0.0309375 2.4375 0.0625 C1.633125 0.805 1.633125 0.805 0.8125 1.5625 C-2.29826927 4.83699396 -4.90698153 8.41558797 -7.5625 12.0625 C-8.5625 9.0625 -8.5625 9.0625 -7.6015625 7.0546875 C-7.13492188 6.35601562 -6.66828125 5.65734375 -6.1875 4.9375 C-5.72601563 4.23367187 -5.26453125 3.52984375 -4.7890625 2.8046875 C-2.8636351 0.06984476 -2.8636351 0.06984476 0 0 Z " fill="#2B3148" transform="translate(111.5625,87.9375)"/>
<path d="M0 0 C4.97306516 0.49730652 8.63799813 1.55302334 13 4 C13 4.66 13 5.32 13 6 C7.57689095 5.56615128 4.29855944 4.35497322 0 1 C0 0.67 0 0.34 0 0 Z " fill="#E8E8E9" transform="translate(61,168)"/>
<path d="M0 0 C0.66 0.33 1.32 0.66 2 1 C-3.75 6 -3.75 6 -6 6 C-6.33 6.99 -6.66 7.98 -7 9 C-10 11 -10 11 -12.1875 10.625 C-12.785625 10.41875 -13.38375 10.2125 -14 10 C-9.57557408 6.28919117 -4.82596069 3.15422267 0 0 Z " fill="#191207" transform="translate(135,133)"/>
<path d="M0 0 C0.66 0 1.32 0 2 0 C1.40049704 3.68266103 0.75241109 7.34543185 0 11 C-1.65 10.67 -3.3 10.34 -5 10 C-3.66749209 6.4124787 -2.169283 3.1635377 0 0 Z " fill="#E1E1E3" transform="translate(45,91)"/>
<path d="M0 0 C0.33 0 0.66 0 1 0 C0.74806895 4.28282783 0.37629014 6.52200982 -2.3125 9.9375 C-5 12 -5 12 -9 12 C-9 11.01 -9 10.02 -9 9 C-8.2575 8.814375 -7.515 8.62875 -6.75 8.4375 C-2.83471421 6.39087334 -1.95624725 3.9124945 0 0 Z " fill="#262C42" transform="translate(129,85)"/>
<path d="M0 0 C1.32 0.33 2.64 0.66 4 1 C2.125 5.875 2.125 5.875 1 7 C1.66 7.66 2.32 8.32 3 9 C1.02 9 -0.96 9 -3 9 C-3 5.30581799 -1.71820705 3.22163822 0 0 Z " fill="#D7D8DB" transform="translate(145,88)"/>
<path d="M0 0 C0.33 0.66 0.66 1.32 1 2 C1.66 2 2.32 2 3 2 C2.67 3.65 2.34 5.3 2 7 C1.34 7 0.68 7 0 7 C-0.66 8.98 -1.32 10.96 -2 13 C-3.1171875 11.296875 -3.1171875 11.296875 -4 9 C-3.3203125 6.640625 -3.3203125 6.640625 -2.125 4.25 C-1.73570312 3.45078125 -1.34640625 2.6515625 -0.9453125 1.828125 C-0.63335937 1.22484375 -0.32140625 0.6215625 0 0 Z " fill="#ACAEB7" transform="translate(133,81)"/>
<path d="M0 0 C0.33 0.66 0.66 1.32 1 2 C1.66 2 2.32 2 3 2 C2.45276317 5.37462715 1.9451 7.08235 0 10 C-0.33 9.67 -0.66 9.34 -1 9 C-1.66 10.98 -2.32 12.96 -3 15 C-4.43410153 11.21180727 -3.51009497 8.93478721 -2.0625 5.25 C-1.49208984 3.77273437 -1.49208984 3.77273437 -0.91015625 2.265625 C-0.60980469 1.51796875 -0.30945313 0.7703125 0 0 Z " fill="#352F10" transform="translate(20,61)"/>
<path d="M0 0 C2.43847451 0.11397544 4.87513174 0.24070974 7.3125 0.375 C8.00279297 0.4059375 8.69308594 0.436875 9.40429688 0.46875 C13.06990789 0.68124919 14.87900792 0.91933861 18 3 C13.98296552 4.06333266 11.05694996 3.70555651 7 3 C6.01 3.33 5.02 3.66 4 4 C1.3125 3.5625 1.3125 3.5625 -1 3 C-0.67 2.01 -0.34 1.02 0 0 Z " fill="#A2813A" transform="translate(47,165)"/>
<path d="M0 0 C-2.98078794 1.24199497 -5.8645361 2.24316389 -9 3 C-9.99 3.495 -9.99 3.495 -11 4 C-13.3329866 4.04022391 -15.66706666 4.04320247 -18 4 C-17.67 3.34 -17.34 2.68 -17 2 C-14.19921875 1.11328125 -14.19921875 1.11328125 -10.6875 0.3125 C-9.53636719 0.04050781 -8.38523437 -0.23148438 -7.19921875 -0.51171875 C-4.2896178 -0.95579704 -2.71382948 -0.99842122 0 0 Z " fill="#DD9B02" transform="translate(93,136)"/>
<path d="M0 0 C1.20220203 3.53094302 0.79532349 6.12898982 0.0625 9.75 C-0.13214844 10.73484375 -0.32679688 11.7196875 -0.52734375 12.734375 C-0.68332031 13.48203125 -0.83929688 14.2296875 -1 15 C-1.99 14.34 -2.98 13.68 -4 13 C-3.40895235 8.15340923 -2.02055843 4.39251833 0 0 Z " fill="#0F0B01" transform="translate(180,111)"/>
<path d="M0 0 C0.99 0.33 1.98 0.66 3 1 C-0.3 4.3 -3.6 7.6 -7 11 C-7.66 10.34 -8.32 9.68 -9 9 C-6 6 -3 3 0 0 Z " fill="#3B3E4B" transform="translate(63,30)"/>
<path d="M0 0 C0.33 1.32 0.66 2.64 1 4 C1.66 4 2.32 4 3 4 C2.3125 5.9375 2.3125 5.9375 1 8 C-1.625 8.75 -1.625 8.75 -4 9 C-2.25 2.25 -2.25 2.25 0 0 Z " fill="#8C8F9B" transform="translate(124,85)"/>
<path d="M0 0 C0.66 0 1.32 0 2 0 C1.62376963 2.63361256 0.94785432 4.07220172 -0.625 6.25 C-3.82936066 8.61110785 -6.11709783 8.29868478 -10 8 C-10 7.67 -10 7.34 -10 7 C-8.9171875 6.938125 -8.9171875 6.938125 -7.8125 6.875 C-3.79172675 5.62409277 -2.58245113 3.2804109 0 0 Z " fill="#E6E7E9" transform="translate(128,92)"/>
<path d="M0 0 C0.33 1.32 0.66 2.64 1 4 C0.34 4 -0.32 4 -1 4 C-1.103125 4.721875 -1.20625 5.44375 -1.3125 6.1875 C-2.06793947 9.27793421 -3.15531315 11.41743841 -5 14 C-5.66 14 -6.32 14 -7 14 C-5.53967505 8.68972746 -3.01679014 4.53669968 0 0 Z " fill="#DEA502" transform="translate(16,42)"/>
<path d="M0 0 C-2.52267991 1.68178661 -4.81091823 2.90106742 -7.5625 4.125 C-8.34753906 4.47820312 -9.13257812 4.83140625 -9.94140625 5.1953125 C-12 6 -12 6 -14 6 C-13.375 4.125 -13.375 4.125 -12 2 C-7.92086433 0.14584742 -4.4471735 -0.21177017 0 0 Z " fill="#EEA80E" transform="translate(126,126)"/>
<path d="M0 0 C0.66 0 1.32 0 2 0 C2.86355778 1.95421035 3.71559934 3.91351347 4.5625 5.875 C5.03816406 6.96554688 5.51382812 8.05609375 6.00390625 9.1796875 C6.33261719 10.11039063 6.66132813 11.04109375 7 12 C6.67 12.66 6.34 13.32 6 14 C1.86217076 9.72424312 0.94055703 5.68046944 0 0 Z " fill="#CCB381" transform="translate(21,113)"/>
<path d="M0 0 C0.33 0 0.66 0 1 0 C1.33266291 6.20970773 0.45029331 10.28264895 -2 16 C-2.33 16 -2.66 16 -3 16 C-2.52013969 10.43109483 -1.70084819 5.32932432 0 0 Z " fill="#DAA102" transform="translate(5,63)"/>
<path d="M0 0 C-1.5830577 4.2742558 -4.50568404 6.26531794 -8 9 C-8.33 8.01 -8.66 7.02 -9 6 C-8.07213211 4.99105628 -7.13231567 3.99309093 -6.1875 3 C-5.66542969 2.443125 -5.14335938 1.88625 -4.60546875 1.3125 C-3 0 -3 0 0 0 Z " fill="#919194" transform="translate(48,39)"/>
<path d="M0 0 C-1.19769678 3.59309034 -2.4676789 4.42093253 -5.4375 6.6875 C-6.24058594 7.31011719 -7.04367188 7.93273437 -7.87109375 8.57421875 C-10 10 -10 10 -12 10 C-11.67 9.01 -11.34 8.02 -11 7 C-10.175 6.690625 -9.35 6.38125 -8.5 6.0625 C-7.675 5.711875 -6.85 5.36125 -6 5 C-5.34786708 2.97536745 -5.34786708 2.97536745 -5 1 C-2 0 -2 0 0 0 Z " fill="#E4A302" transform="translate(153,119)"/>
<path d="M0 0 C1.125 1.6875 1.125 1.6875 2 4 C1.1875 6.3125 1.1875 6.3125 0 9 C-0.3813074 11.32597511 -0.72460254 13.65912158 -1 16 C-3 13 -3 13 -2.75 10.25 C-1.95046422 6.78534497 -1.02160945 3.40536485 0 0 Z " fill="#2B2E3C" transform="translate(54,94)"/>
<path d="M0 0 C0 4.54960762 -2.12127294 7.07105996 -5.1875 10.3125 C-6.0846875 11.1478125 -6.0846875 11.1478125 -7 12 C-7.33 11.01 -7.66 10.02 -8 9 C-6.6015625 6.9921875 -6.6015625 6.9921875 -4.625 4.875 C-3.97789063 4.17117187 -3.33078125 3.46734375 -2.6640625 2.7421875 C-1.7838265 1.82062587 -0.90113574 0.90113574 0 0 Z " fill="#D0D0D1" transform="translate(44,33)"/>
<path d="M0 0 C1.32 0.33 2.64 0.66 4 1 C0.7 3.97 -2.6 6.94 -6 10 C-6 6.41087588 -5.33563446 5.89142971 -3 3.3125 C-2.443125 2.68988281 -1.88625 2.06726562 -1.3125 1.42578125 C-0.879375 0.95527344 -0.44625 0.48476563 0 0 Z " fill="#EBEAEB" transform="translate(48,30)"/>
<path d="M0 0 C0.66 0.66 1.32 1.32 2 2 C-0.97 2.66 -3.94 3.32 -7 4 C-7 3.34 -7 2.68 -7 2 C-7.66 1.67 -8.32 1.34 -9 1 C-5.60805912 -0.60174986 -3.55768883 -1.4721471 0 0 Z " fill="#262317" transform="translate(73,15)"/>
<path d="M0 0 C0.99 0 1.98 0 3 0 C2.58578031 4.83256305 0.53586014 6.82679218 -3 10 C-2.39009109 6.44219804 -1.4216319 3.3171411 0 0 Z " fill="#353A4C" transform="translate(142,83)"/>
<path d="M0 0 C6.52307692 0.61538462 6.52307692 0.61538462 8.9375 2.5625 C9.288125 3.036875 9.63875 3.51125 10 4 C7.8125 4.8125 7.8125 4.8125 5 5 C2.1875 2.5625 2.1875 2.5625 0 0 Z " fill="#121110" transform="translate(131,17)"/>
<path d="M0 0 C0 0.66 0 1.32 0 2 C-3.50776784 3.60355101 -6.14354879 4.22036864 -10 4 C-9.67 3.01 -9.34 2.02 -9 1 C-5.8035914 -0.06546953 -3.34252724 -0.07427838 0 0 Z " fill="#0B0A06" transform="translate(82,12)"/>
<path d="M0 0 C-2.26568725 2.26568725 -3.43233985 2.55280451 -6.5 3.25 C-7.2940625 3.44078125 -8.088125 3.6315625 -8.90625 3.828125 C-9.5971875 3.88484375 -10.288125 3.9415625 -11 4 C-11.66 3.34 -12.32 2.68 -13 2 C-8.49646738 0.24252386 -4.82360189 -0.19294408 0 0 Z " fill="#E3AE02" transform="translate(76,3)"/>
<path d="M0 0 C6.625 0.75 6.625 0.75 10 3 C9 4 9 4 6.125 4.1875 C3 4 3 4 0 2 C0 1.34 0 0.68 0 0 Z " fill="#0D0B09" transform="translate(73,176)"/>
<path d="M0 0 C0 3.61137513 -0.92530082 4.74732191 -2.9375 7.6875 C-3.48277344 8.49574219 -4.02804688 9.30398437 -4.58984375 10.13671875 C-5.05519531 10.75160156 -5.52054688 11.36648437 -6 12 C-6.33 12 -6.66 12 -7 12 C-6.67 9.69 -6.34 7.38 -6 5 C-5.34 5.33 -4.68 5.66 -4 6 C-2.68 4.02 -1.36 2.04 0 0 Z " fill="#A0A0A4" transform="translate(35,56)"/>
<path d="M0 0 C1 3 1 3 -0.21484375 5.48046875 C-0.78332031 6.37378906 -1.35179688 7.26710938 -1.9375 8.1875 C-2.50339844 9.08855469 -3.06929688 9.98960938 -3.65234375 10.91796875 C-4.09707031 11.60503906 -4.54179688 12.29210937 -5 13 C-5.66 12.67 -6.32 12.34 -7 12 C-5.35 8.7 -3.7 5.4 -2 2 C-1.34 2 -0.68 2 0 2 C0 1.34 0 0.68 0 0 Z " fill="#3D4037" transform="translate(90,55)"/>
<path d="M0 0 C1.95901454 0.11382653 3.9172338 0.24141125 5.875 0.375 C6.96554688 0.44460938 8.05609375 0.51421875 9.1796875 0.5859375 C12 1 12 1 14 3 C9.05 3 4.1 3 -1 3 C-0.67 2.01 -0.34 1.02 0 0 Z " fill="#F0E3B4" transform="translate(107,13)"/>
<path d="M0 0 C0.33 0 0.66 0 1 0 C1 1.65 1 3.3 1 5 C2.32 4.67 3.64 4.34 5 4 C4.07347299 5.17539996 3.13336613 6.34010577 2.1875 7.5 C1.66542969 8.1496875 1.14335937 8.799375 0.60546875 9.46875 C-1 11 -1 11 -4 11 C-4 9 -4 9 -2 7 C-1.34 6.67 -0.68 6.34 0 6 C0 4.02 0 2.04 0 0 Z " fill="#BE9422" transform="translate(18,104)"/>
<path d="M0 0 C1.46726798 3.81489674 0.43336419 6.29011622 -1 10 C-1.99 10 -2.98 10 -4 10 C-3.29445932 6.33118845 -1.72264494 3.29549466 0 0 Z " fill="#282B38" transform="translate(48,91)"/>
<path d="M0 0 C0 0.99 0 1.98 0 3 C0.66 3.33 1.32 3.66 2 4 C1.67 4.99 1.34 5.98 1 7 C0.67 6.34 0.34 5.68 0 5 C-1.89533342 4.53476937 -1.89533342 4.53476937 -4.0625 4.375 C-5.361875 4.25125 -6.66125 4.1275 -8 4 C-5.33440687 2.22293791 -2.9719385 1.12451727 0 0 Z " fill="#D49C07" transform="translate(174,91)"/>
<path d="M0 0 C0.66 0.33 1.32 0.66 2 1 C-1.49087093 5.0042343 -3.64951939 6.62671065 -9 7 C-6.25604436 4.05278838 -3.61662784 1.80831392 0 0 Z " fill="#D8A603" transform="translate(51,10)"/>
<path d="M0 0 C0.66 0.33 1.32 0.66 2 1 C2 1.99 2 2.98 2 4 C0.02 4.99 -1.96 5.98 -4 7 C-4.66 6.01 -5.32 5.02 -6 4 C-4.02 2.68 -2.04 1.36 0 0 Z " fill="#E1DFD9" transform="translate(142,163)"/>
<path d="M0 0 C-2 2 -2 2 -4.3828125 2.1953125 C-5.28773437 2.17210937 -6.19265625 2.14890625 -7.125 2.125 C-8.49011719 2.09792969 -8.49011719 2.09792969 -9.8828125 2.0703125 C-10.58148438 2.04710937 -11.28015625 2.02390625 -12 2 C-8.63758153 -1.36241847 -4.39594827 -1.5216744 0 0 Z " fill="#CE8C05" transform="translate(64,164)"/>
<path d="M0 0 C0.33 0 0.66 0 1 0 C1.38133299 1.9914056 1.71325582 3.99279077 2 6 C1 7 1 7 -1.5625 7.0625 C-2.7690625 7.0315625 -2.7690625 7.0315625 -4 7 C-1.125 1.125 -1.125 1.125 0 0 Z " fill="#8C8D96" transform="translate(75,95)"/>
<path d="M0 0 C0.66 0.66 1.32 1.32 2 2 C2.99 1.67 3.98 1.34 5 1 C4.60196439 3.88575819 4.20990931 4.82189513 1.9375 6.75 C1.298125 7.1625 0.65875 7.575 0 8 C0 5.36 0 2.72 0 0 Z " fill="#53545D" transform="translate(26,69)"/>
<path d="M0 0 C1.32 0.33 2.64 0.66 4 1 C1.69 3.31 -0.62 5.62 -3 8 C-3.33 7.01 -3.66 6.02 -4 5 C-2.0625 2.3125 -2.0625 2.3125 0 0 Z " fill="#E4CE4B" transform="translate(41,28)"/>
<path d="M0 0 C3.26954202 0.56371414 4.82575883 1.49962266 7 4 C6.67 4.99 6.34 5.98 6 7 C3.95880212 5.38405168 1.95927063 3.7143618 0 2 C0 1.34 0 0.68 0 0 Z " fill="#E3E2DD" transform="translate(143,29)"/>
<path d="M0 0 C1.98 0 3.96 0 6 0 C5.67 0.99 5.34 1.98 5 3 C5.99 3.33 6.98 3.66 8 4 C7.01 4.66 6.02 5.32 5 6 C3.35 4.02 1.7 2.04 0 0 Z " fill="#C58502" transform="translate(30,165)"/>
<path d="M0 0 C0.99 0.33 1.98 0.66 3 1 C1.6875 3.5 1.6875 3.5 0 6 C-0.99 6 -1.98 6 -3 6 C-3.99 6.495 -3.99 6.495 -5 7 C-3.70700306 4.11562221 -2.34058637 2.12780579 0 0 Z " fill="#E3E1D9" transform="translate(160,146)"/>
<path d="M0 0 C0.33 0.99 0.66 1.98 1 3 C0.00390625 4.82421875 0.00390625 4.82421875 -1.4375 6.6875 C-1.91058594 7.31011719 -2.38367188 7.93273438 -2.87109375 8.57421875 C-3.24363281 9.04472656 -3.61617188 9.51523438 -4 10 C-4.33 9.01 -4.66 8.02 -5 7 C-2 2 -2 2 0 0 Z " fill="#4B4D3C" transform="translate(103,56)"/>
<path d="M0 0 C-2.3129482 2.3129482 -3.47904875 2.49580975 -6.625 3.125 C-7.44226563 3.29257812 -8.25953125 3.46015625 -9.1015625 3.6328125 C-10.04128906 3.81457031 -10.04128906 3.81457031 -11 4 C-10.67 3.01 -10.34 2.02 -10 1 C-6.52674819 -0.1577506 -3.63932552 -0.06866652 0 0 Z " fill="#F5F4F4" transform="translate(91,14)"/>
<path d="M0 0 C0.66 0 1.32 0 2 0 C1.35455571 3.48539917 -0.10134397 6.02819057 -2 9 C-2.6875 7.3125 -2.6875 7.3125 -3 5 C-1.6875 2.25 -1.6875 2.25 0 0 Z " fill="#CCCBCC" transform="translate(33,54)"/>
<path d="M0 0 C1.25541557 3.76624671 0.37061958 5.37188934 -1 9 C-1.99 9 -2.98 9 -4 9 C-2.94124926 5.59687262 -1.99097846 2.98646769 0 0 Z " fill="#3C3F34" transform="translate(75,53)"/>
<path d="M0 0 C0.99 0.33 1.98 0.66 3 1 C-1.5 5.875 -1.5 5.875 -6 7 C-4.02 4.69 -2.04 2.38 0 0 Z " fill="#2B2B2C" transform="translate(46,35)"/>
<path d="M0 0 C0.66 0.33 1.32 0.66 2 1 C0.1875 4 0.1875 4 -2 7 C-2.99 7 -3.98 7 -5 7 C-5.99 7.495 -5.99 7.495 -7 8 C-5.50902342 4.2047869 -3.24299151 2.38957269 0 0 Z " fill="#1E1C15" transform="translate(36,39)"/>
<path d="M0 0 C1.32 0 2.64 0 4 0 C4 0.99 4 1.98 4 3 C1.69 3.33 -0.62 3.66 -3 4 C-1.75 2 -1.75 2 0 0 Z " fill="#110D05" transform="translate(129,174)"/>
<path d="M0 0 C2.97 0.495 2.97 0.495 6 1 C6 2.32 6 3.64 6 5 C4.02 4.34 2.04 3.68 0 3 C0 2.01 0 1.02 0 0 Z " fill="#261D0B" transform="translate(68,174)"/>
<path d="M0 0 C0.66 0.33 1.32 0.66 2 1 C1 4 1 4 -2 6 C-2.73343428 9.06556598 -2.73343428 9.06556598 -3 12 C-3.33 12 -3.66 12 -4 12 C-4.33292585 7.75519536 -4.43885872 5.64457375 -2 2.0625 C-1.34 1.381875 -0.68 0.70125 0 0 Z " fill="#2A1F02" transform="translate(20,110)"/>
<path d="M0 0 C0.66 1.32 1.32 2.64 2 4 C2.99 3.01 3.98 2.02 5 1 C5.66 1.33 6.32 1.66 7 2 C5.68 3.65 4.36 5.3 3 7 C2.01 6.67 1.02 6.34 0 6 C0 4.02 0 2.04 0 0 Z " fill="#353741" transform="translate(25,72)"/>
<path d="M0 0 C0.33 0 0.66 0 1 0 C1 2.64 1 5.28 1 8 C0.01 8.33 -0.98 8.66 -2 9 C-1.125 1.125 -1.125 1.125 0 0 Z " fill="#2E3331" transform="translate(79,62)"/>
<path d="M0 0 C5.75 -0.125 5.75 -0.125 8 1 C8 1.66 8 2.32 8 3 C2.25 3.125 2.25 3.125 0 2 C0 1.34 0 0.68 0 0 Z " fill="#060810" transform="translate(117,12)"/>
<path d="M0 0 C-0.99 0.33 -1.98 0.66 -3 1 C-3 1.66 -3 2.32 -3 3 C-5.31 2.67 -7.62 2.34 -10 2 C-6.3558226 -0.4294516 -4.28758728 -0.16179575 0 0 Z " fill="#2A2007" transform="translate(89,179)"/>
<path d="M0 0 C-1.40945366 0.56016748 -2.8280031 1.09748502 -4.25 1.625 C-5.43335937 2.07746094 -5.43335937 2.07746094 -6.640625 2.5390625 C-9.49917715 3.09752136 -10.58959839 2.53690745 -13 1 C-11.39796533 0.63631108 -9.79325797 0.28438048 -8.1875 -0.0625 C-7.29417969 -0.25972656 -6.40085937 -0.45695313 -5.48046875 -0.66015625 C-3 -1 -3 -1 0 0 Z " fill="#433302" transform="translate(87,154)"/>
<path d="M0 0 C1.4552777 2.9105554 0.63516661 4.95849052 0.0625 8.125 C-0.13214844 9.22070312 -0.32679687 10.31640625 -0.52734375 11.4453125 C-0.68332031 12.28835937 -0.83929688 13.13140625 -1 14 C-1.33 14 -1.66 14 -2 14 C-2.25028811 12.41986783 -2.47440946 10.83557694 -2.6875 9.25 C-2.81511719 8.36828125 -2.94273437 7.4865625 -3.07421875 6.578125 C-2.98397191 3.44323483 -2.07384637 2.28176413 0 0 Z " fill="#322A14" transform="translate(8,114)"/>
<path d="M0 0 C-0.33 1.32 -0.66 2.64 -1 4 C-5 4 -5 4 -7 3 C-2.25 0 -2.25 0 0 0 Z " fill="#F4EACC" transform="translate(167,104)"/>
<path d="M0 0 C0.33 0.66 0.66 1.32 1 2 C0.22265625 3.9453125 0.22265625 3.9453125 -0.9375 6.125 C-1.31777344 6.84945312 -1.69804688 7.57390625 -2.08984375 8.3203125 C-2.39019531 8.87460938 -2.69054687 9.42890625 -3 10 C-3.62109375 8.203125 -3.62109375 8.203125 -4 6 C-2.0625 2.75 -2.0625 2.75 0 0 Z " fill="#D0D0D4" transform="translate(67,91)"/>
<path d="M0 0 C0.99 0 1.98 0 3 0 C2.67 2.31 2.34 4.62 2 7 C1.34 7 0.68 7 0 7 C0 4.69 0 2.38 0 0 Z " fill="#F2F1F3" transform="translate(76,93)"/>
<path d="M0 0 C3.875 1.875 3.875 1.875 5 3 C5.66 2.01 6.32 1.02 7 0 C7 1.65 7 3.3 7 5 C6.34 5 5.68 5 5 5 C4.67 5.66 4.34 6.32 4 7 C2.02 3.535 2.02 3.535 0 0 Z " fill="#99791C" transform="translate(169,84)"/>
<path d="M0 0 C0.66 0.33 1.32 0.66 2 1 C-0.31 3.64 -2.62 6.28 -5 9 C-5.33 8.34 -5.66 7.68 -6 7 C-4.02 4.69 -2.04 2.38 0 0 Z " fill="#1C1C1D" transform="translate(40,42)"/>
<path d="M0 0 C1.32 0.99 2.64 1.98 4 3 C3.67 3.66 3.34 4.32 3 5 C1.68 5 0.36 5 -1 5 C-1.33 4.01 -1.66 3.02 -2 2 C-1.34 1.34 -0.68 0.68 0 0 Z " fill="#FDF7E1" transform="translate(178,91)"/>
<path d="M0 0 C0.66 0.66 1.32 1.32 2 2 C1.75 5.5625 1.75 5.5625 1 9 C0.01 9.495 0.01 9.495 -1 10 C-0.67 6.7 -0.34 3.4 0 0 Z " fill="#DEA101" transform="translate(1,80)"/>
<path d="M0 0 C2.83022097 3.99560608 1.76210446 7.42737323 1 12 C0.67 12 0.34 12 0 12 C-0.19573608 10.56359829 -0.38127816 9.12580496 -0.5625 7.6875 C-0.66691406 6.88699219 -0.77132812 6.08648437 -0.87890625 5.26171875 C-1 3 -1 3 0 0 Z " fill="#5B5C3F" transform="translate(110,53)"/>
<path d="M0 0 C0.99 0 1.98 0 3 0 C2.67 1.32 2.34 2.64 2 4 C0.68 4.33 -0.64 4.66 -2 5 C-1.34 3.35 -0.68 1.7 0 0 Z " fill="#E9D64C" transform="translate(119,41)"/>
<path d="M0 0 C3.16115776 1.36983503 3.9927092 1.9890638 6 5 C5.01 5.33 4.02 5.66 3 6 C1.5 4.6875 1.5 4.6875 0 3 C0 2.01 0 1.02 0 0 Z " fill="#F5EED6" transform="translate(150,34)"/>
<path d="M0 0 C2.64 0.33 5.28 0.66 8 1 C7.67 1.66 7.34 2.32 7 3 C4.36 2.67 1.72 2.34 -1 2 C-0.67 1.34 -0.34 0.68 0 0 Z " fill="#FAF9F4" transform="translate(113,15)"/>
<path d="M0 0 C2.97 0.33 5.94 0.66 9 1 C8.67 1.66 8.34 2.32 8 3 C5.125 3.1875 5.125 3.1875 2 3 C1.34 2.01 0.68 1.02 0 0 Z " fill="#DEAA01" transform="translate(105,0)"/>
<path d="M0 0 C0.66 0.99 1.32 1.98 2 3 C1.01 4.98 0.02 6.96 -1 9 C-1.66 9 -2.32 9 -3 9 C-2.01 6.03 -1.02 3.06 0 0 Z " fill="#3C3F4A" transform="translate(67,93)"/>
<path d="M0 0 C0.99 0 1.98 0 3 0 C1.75023244 3.65316671 1.32901247 4.78065836 -2 7 C-1.125 2.25 -1.125 2.25 0 0 Z " fill="#33394C" transform="translate(105,93)"/>
<path d="M0 0 C1.32 0.33 2.64 0.66 4 1 C3.67 1.99 3.34 2.98 3 4 C0.4375 5.1875 0.4375 5.1875 -2 6 C-1.34 4.02 -0.68 2.04 0 0 Z " fill="#303445" transform="translate(145,88)"/>
</svg>
